#N canvas 311 63 739 616 10;
#N canvas 154 69 814 706 VOCODER 0;
#X obj 210 146 sfplay~;
#X obj 210 220 s~ input;
#N canvas 165 373 400 112 inputanalisis 0;
#X obj 15 21 r~ input;
#N canvas 66 121 1229 660 filtros1 0;
#X obj 59 35 inlet~;
#X obj 59 179 peakamp~ 25;
#X obj 59 127 reson~ 1 20 16.817;
#X obj 59 153 reson~ 1 20 16.817;
#X obj 200 179 peakamp~ 25;
#X obj 341 179 peakamp~ 25;
#X obj 200 127 reson~ 1 21.189 16.817;
#X obj 200 153 reson~ 1 21.189 16.817;
#X obj 341 127 reson~ 1 22.449 16.817;
#X obj 341 153 reson~ 1 22.449 16.817;
#X obj 59 205 s F1;
#X obj 200 205 s F2;
#X obj 341 205 s F3;
#X obj 482 179 peakamp~ 25;
#X obj 482 127 reson~ 1 23.784 16.817;
#X obj 482 153 reson~ 1 23.784 16.817;
#X obj 482 205 s F4;
#X obj 623 179 peakamp~ 25;
#X obj 764 179 peakamp~ 25;
#X obj 905 179 peakamp~ 25;
#X obj 1046 179 peakamp~ 25;
#X obj 59 309 peakamp~ 25;
#X obj 200 309 peakamp~ 25;
#X obj 341 309 peakamp~ 25;
#X obj 482 309 peakamp~ 25;
#X obj 623 309 peakamp~ 25;
#X obj 764 309 peakamp~ 25;
#X obj 905 309 peakamp~ 25;
#X obj 1046 309 peakamp~ 25;
#X obj 623 127 reson~ 1 25.198 16.817;
#X obj 623 153 reson~ 1 25.198 16.817;
#X obj 623 205 s F5;
#X obj 764 127 reson~ 1 26.697 16.817;
#X obj 764 153 reson~ 1 26.697 16.817;
#X obj 764 205 s F6;
#X obj 905 127 reson~ 1 28.284 16.817;
#X obj 905 153 reson~ 1 28.284 16.817;
#X obj 905 205 s F7;
#X obj 1046 127 reson~ 1 29.966 16.817;
#X obj 1046 153 reson~ 1 29.966 16.817;
#X obj 1046 205 s F8;
#X obj 59 257 reson~ 1 31.748 16.817;
#X obj 59 283 reson~ 1 31.748 16.817;
#X obj 59 335 s F9;
#X obj 200 257 reson~ 1 33.636 16.817;
#X obj 200 283 reson~ 1 33.636 16.817;
#X obj 200 335 s F10;
#X obj 341 257 reson~ 1 35.636 16.817;
#X obj 341 283 reson~ 1 35.636 16.817;
#X obj 341 335 s F11;
#X obj 482 257 reson~ 1 37.755 16.817;
#X obj 482 283 reson~ 1 37.755 16.817;
#X obj 482 335 s F12;
#X obj 623 257 reson~ 1 40 16.817;
#X obj 623 283 reson~ 1 40 16.817;
#X obj 623 335 s F13;
#X obj 764 257 reson~ 1 42.379 16.817;
#X obj 764 283 reson~ 1 42.379 16.817;
#X obj 764 335 s F14;
#X obj 905 257 reson~ 1 44.898 16.817;
#X obj 905 283 reson~ 1 44.898 16.817;
#X obj 905 335 s F15;
#X obj 1046 257 reson~ 1 47.568 16.817;
#X obj 1046 283 reson~ 1 47.568 16.817;
#X obj 1046 335 s F16;
#X obj 59 439 peakamp~ 25;
#X obj 200 439 peakamp~ 25;
#X obj 341 439 peakamp~ 25;
#X obj 482 439 peakamp~ 25;
#X obj 623 439 peakamp~ 25;
#X obj 764 439 peakamp~ 25;
#X obj 905 439 peakamp~ 25;
#X obj 1046 439 peakamp~ 25;
#X obj 59 387 reson~ 1 50.397 16.817;
#X obj 59 413 reson~ 1 50.397 16.817;
#X obj 59 465 s F17;
#X obj 200 387 reson~ 1 53.394 16.817;
#X obj 200 413 reson~ 1 53.394 16.817;
#X obj 200 465 s F18;
#X obj 341 387 reson~ 1 56.569 16.817;
#X obj 341 413 reson~ 1 56.569 16.817;
#X obj 341 465 s F19;
#X obj 482 387 reson~ 1 59.932 16.817;
#X obj 482 413 reson~ 1 59.932 16.817;
#X obj 482 465 s F20;
#X obj 623 387 reson~ 1 63.496 16.817;
#X obj 623 413 reson~ 1 63.496 16.817;
#X obj 623 465 s F21;
#X obj 764 387 reson~ 1 67.272 16.817;
#X obj 764 413 reson~ 1 67.272 16.817;
#X obj 764 465 s F22;
#X obj 905 387 reson~ 1 71.272 16.817;
#X obj 905 413 reson~ 1 71.272 16.817;
#X obj 905 465 s F23;
#X obj 1046 387 reson~ 1 75.51 16.817;
#X obj 1046 413 reson~ 1 75.51 16.817;
#X obj 1046 465 s F24;
#X obj 59 568 peakamp~ 25;
#X obj 59 594 s F25;
#X obj 59 516 reson~ 1 80 16.817;
#X obj 59 542 reson~ 1 80 16.817;
#X obj 1139 191 r Q;
#X obj 1144 328 r Q;
#X obj 1134 455 r Q;
#X obj 1001 444 r Q;
#X obj 1002 308 r Q;
#X obj 1006 181 r Q;
#X obj 867 183 r Q;
#X obj 718 182 r Q;
#X obj 574 184 r Q;
#X obj 435 178 r Q;
#X obj 294 181 r Q;
#X obj 150 188 r Q;
#X obj 151 313 r Q;
#X obj 295 317 r Q;
#X obj 436 315 r Q;
#X obj 572 318 r Q;
#X obj 710 314 r Q;
#X obj 852 323 r Q;
#X obj 856 459 r Q;
#X obj 698 462 r Q;
#X obj 570 454 r Q;
#X obj 431 454 r Q;
#X obj 285 444 r Q;
#X obj 155 439 r Q;
#X obj 192 522 r Q;
#X connect 0 0 2 0;
#X connect 0 0 6 0;
#X connect 0 0 8 0;
#X connect 0 0 14 0;
#X connect 0 0 29 0;
#X connect 0 0 32 0;
#X connect 0 0 35 0;
#X connect 0 0 38 0;
#X connect 0 0 41 0;
#X connect 0 0 44 0;
#X connect 0 0 47 0;
#X connect 0 0 50 0;
#X connect 0 0 53 0;
#X connect 0 0 56 0;
#X connect 0 0 59 0;
#X connect 0 0 62 0;
#X connect 0 0 73 0;
#X connect 0 0 76 0;
#X connect 0 0 79 0;
#X connect 0 0 82 0;
#X connect 0 0 85 0;
#X connect 0 0 88 0;
#X connect 0 0 91 0;
#X connect 0 0 94 0;
#X connect 0 0 99 0;
#X connect 1 0 10 0;
#X connect 2 0 3 0;
#X connect 3 0 1 0;
#X connect 4 0 11 0;
#X connect 5 0 12 0;
#X connect 6 0 7 0;
#X connect 7 0 4 0;
#X connect 8 0 9 0;
#X connect 9 0 5 0;
#X connect 13 0 16 0;
#X connect 14 0 15 0;
#X connect 15 0 13 0;
#X connect 17 0 31 0;
#X connect 18 0 34 0;
#X connect 19 0 37 0;
#X connect 20 0 40 0;
#X connect 21 0 43 0;
#X connect 22 0 46 0;
#X connect 23 0 49 0;
#X connect 24 0 52 0;
#X connect 25 0 55 0;
#X connect 26 0 58 0;
#X connect 27 0 61 0;
#X connect 28 0 64 0;
#X connect 29 0 30 0;
#X connect 30 0 17 0;
#X connect 32 0 33 0;
#X connect 33 0 18 0;
#X connect 35 0 36 0;
#X connect 36 0 19 0;
#X connect 38 0 39 0;
#X connect 39 0 20 0;
#X connect 41 0 42 0;
#X connect 42 0 21 0;
#X connect 44 0 45 0;
#X connect 45 0 22 0;
#X connect 47 0 48 0;
#X connect 48 0 23 0;
#X connect 50 0 51 0;
#X connect 51 0 24 0;
#X connect 53 0 54 0;
#X connect 54 0 25 0;
#X connect 56 0 57 0;
#X connect 57 0 26 0;
#X connect 59 0 60 0;
#X connect 60 0 27 0;
#X connect 62 0 63 0;
#X connect 63 0 28 0;
#X connect 65 0 75 0;
#X connect 66 0 78 0;
#X connect 67 0 81 0;
#X connect 68 0 84 0;
#X connect 69 0 87 0;
#X connect 70 0 90 0;
#X connect 71 0 93 0;
#X connect 72 0 96 0;
#X connect 73 0 74 0;
#X connect 74 0 65 0;
#X connect 76 0 77 0;
#X connect 77 0 66 0;
#X connect 79 0 80 0;
#X connect 80 0 67 0;
#X connect 82 0 83 0;
#X connect 83 0 68 0;
#X connect 85 0 86 0;
#X connect 86 0 69 0;
#X connect 88 0 89 0;
#X connect 89 0 70 0;
#X connect 91 0 92 0;
#X connect 92 0 71 0;
#X connect 94 0 95 0;
#X connect 95 0 72 0;
#X connect 97 0 98 0;
#X connect 99 0 100 0;
#X connect 100 0 97 0;
#X connect 101 0 39 3;
#X connect 101 0 38 3;
#X connect 102 0 63 3;
#X connect 102 0 62 3;
#X connect 103 0 95 3;
#X connect 103 0 94 3;
#X connect 104 0 92 3;
#X connect 104 0 91 3;
#X connect 105 0 60 3;
#X connect 105 0 59 3;
#X connect 106 0 36 3;
#X connect 106 0 35 3;
#X connect 107 0 33 3;
#X connect 107 0 32 3;
#X connect 108 0 30 3;
#X connect 108 0 29 3;
#X connect 109 0 15 3;
#X connect 109 0 14 3;
#X connect 110 0 9 3;
#X connect 110 0 8 3;
#X connect 111 0 7 3;
#X connect 111 0 6 3;
#X connect 112 0 3 3;
#X connect 112 0 2 3;
#X connect 113 0 42 3;
#X connect 113 0 41 3;
#X connect 114 0 45 3;
#X connect 114 0 44 3;
#X connect 115 0 48 3;
#X connect 115 0 47 3;
#X connect 116 0 51 3;
#X connect 116 0 50 3;
#X connect 117 0 54 3;
#X connect 117 0 53 3;
#X connect 118 0 57 3;
#X connect 118 0 56 3;
#X connect 119 0 89 3;
#X connect 119 0 88 3;
#X connect 120 0 86 3;
#X connect 120 0 85 3;
#X connect 121 0 83 3;
#X connect 121 0 82 3;
#X connect 122 0 80 3;
#X connect 122 0 79 3;
#X connect 123 0 77 3;
#X connect 123 0 76 3;
#X connect 124 0 74 3;
#X connect 124 0 73 3;
#X connect 125 0 100 3;
#X connect 125 0 99 3;
#X restore 15 55 pd filtros1;
#N canvas 119 79 1273 693 filtros2 0;
#X obj 69 45 inlet~;
#X obj 69 189 peakamp~ 25;
#X obj 216 189 peakamp~ 25;
#X obj 363 189 peakamp~ 25;
#X obj 511 189 peakamp~ 25;
#X obj 660 189 peakamp~ 25;
#X obj 809 189 peakamp~ 25;
#X obj 958 189 peakamp~ 25;
#X obj 1107 189 peakamp~ 25;
#X obj 69 319 peakamp~ 25;
#X obj 216 319 peakamp~ 25;
#X obj 363 319 peakamp~ 25;
#X obj 511 319 peakamp~ 25;
#X obj 660 319 peakamp~ 25;
#X obj 809 319 peakamp~ 25;
#X obj 958 319 peakamp~ 25;
#X obj 1107 319 peakamp~ 25;
#X obj 69 449 peakamp~ 25;
#X obj 216 449 peakamp~ 25;
#X obj 363 449 peakamp~ 25;
#X obj 511 449 peakamp~ 25;
#X obj 660 449 peakamp~ 25;
#X obj 809 449 peakamp~ 25;
#X obj 958 449 peakamp~ 25;
#X obj 1107 449 peakamp~ 25;
#X obj 69 578 peakamp~ 25;
#X obj 69 137 reson~ 1 84.757 16.817;
#X obj 69 163 reson~ 1 84.757 16.817;
#X obj 69 215 s F26;
#X obj 216 137 reson~ 1 89.797 16.817;
#X obj 216 163 reson~ 1 89.797 16.817;
#X obj 216 215 s F27;
#X obj 363 137 reson~ 1 95.137 16.817;
#X obj 363 163 reson~ 1 95.137 16.817;
#X obj 363 215 s F28;
#X obj 511 137 reson~ 1 100.794 16.817;
#X obj 511 163 reson~ 1 100.794 16.817;
#X obj 511 215 s F29;
#X obj 660 137 reson~ 1 106.787 16.817;
#X obj 660 163 reson~ 1 106.787 16.817;
#X obj 660 215 s F30;
#X obj 809 137 reson~ 1 113.137 16.817;
#X obj 809 163 reson~ 1 113.137 16.817;
#X obj 809 215 s F31;
#X obj 958 137 reson~ 1 119.865 16.817;
#X obj 958 163 reson~ 1 119.865 16.817;
#X obj 958 215 s F32;
#X obj 1107 137 reson~ 1 126.992 16.817;
#X obj 1107 163 reson~ 1 126.992 16.817;
#X obj 1107 215 s F33;
#X obj 69 267 reson~ 1 134.543 16.817;
#X obj 69 293 reson~ 1 134.543 16.817;
#X obj 69 345 s F34;
#X obj 216 267 reson~ 1 142.544 16.817;
#X obj 216 293 reson~ 1 142.544 16.817;
#X obj 216 345 s F35;
#X obj 363 267 reson~ 1 151.02 16.817;
#X obj 363 293 reson~ 1 151.02 16.817;
#X obj 363 345 s F36;
#X obj 511 267 reson~ 1 160 16.817;
#X obj 511 293 reson~ 1 160 16.817;
#X obj 511 345 s F37;
#X obj 660 267 reson~ 1 169.514 16.817;
#X obj 660 293 reson~ 1 169.514 16.817;
#X obj 660 345 s F38;
#X obj 809 267 reson~ 1 179.594 16.817;
#X obj 809 293 reson~ 1 179.594 16.817;
#X obj 809 345 s F39;
#X obj 958 267 reson~ 1 190.273 16.817;
#X obj 958 293 reson~ 1 190.273 16.817;
#X obj 958 345 s F40;
#X obj 1107 267 reson~ 1 201.587 16.817;
#X obj 1107 293 reson~ 1 201.587 16.817;
#X obj 1107 345 s F41;
#X obj 69 397 reson~ 1 213.574 16.817;
#X obj 69 423 reson~ 1 213.574 16.817;
#X obj 69 475 s F42;
#X obj 216 397 reson~ 1 226.274 16.817;
#X obj 216 423 reson~ 1 226.274 16.817;
#X obj 216 475 s F43;
#X obj 363 397 reson~ 1 239.729 16.817;
#X obj 363 423 reson~ 1 239.729 16.817;
#X obj 363 475 s F44;
#X obj 511 397 reson~ 1 253.984 16.817;
#X obj 511 423 reson~ 1 253.984 16.817;
#X obj 511 475 s F45;
#X obj 660 397 reson~ 1 269.087 16.817;
#X obj 660 423 reson~ 1 269.087 16.817;
#X obj 660 475 s F46;
#X obj 809 397 reson~ 1 285.088 16.817;
#X obj 809 423 reson~ 1 285.088 16.817;
#X obj 809 475 s F47;
#X obj 958 397 reson~ 1 302.04 16.817;
#X obj 958 423 reson~ 1 302.04 16.817;
#X obj 958 475 s F48;
#X obj 1107 397 reson~ 1 320 16.817;
#X obj 1107 423 reson~ 1 320 16.817;
#X obj 1107 475 s F49;
#X obj 69 526 reson~ 1 339.028 16.817;
#X obj 69 552 reson~ 1 339.028 16.817;
#X obj 69 604 s F50;
#X obj 144 190 r Q;
#X obj 145 319 r Q;
#X obj 147 449 r Q;
#X connect 0 0 26 0;
#X connect 0 0 29 0;
#X connect 0 0 32 0;
#X connect 0 0 35 0;
#X connect 0 0 38 0;
#X connect 0 0 41 0;
#X connect 0 0 44 0;
#X connect 0 0 47 0;
#X connect 0 0 50 0;
#X connect 0 0 53 0;
#X connect 0 0 56 0;
#X connect 0 0 59 0;
#X connect 0 0 62 0;
#X connect 0 0 65 0;
#X connect 0 0 68 0;
#X connect 0 0 71 0;
#X connect 0 0 74 0;
#X connect 0 0 77 0;
#X connect 0 0 80 0;
#X connect 0 0 83 0;
#X connect 0 0 86 0;
#X connect 0 0 89 0;
#X connect 0 0 92 0;
#X connect 0 0 95 0;
#X connect 0 0 98 0;
#X connect 1 0 28 0;
#X connect 2 0 31 0;
#X connect 3 0 34 0;
#X connect 4 0 37 0;
#X connect 5 0 40 0;
#X connect 6 0 43 0;
#X connect 7 0 46 0;
#X connect 8 0 49 0;
#X connect 9 0 52 0;
#X connect 10 0 55 0;
#X connect 11 0 58 0;
#X connect 12 0 61 0;
#X connect 13 0 64 0;
#X connect 14 0 67 0;
#X connect 15 0 70 0;
#X connect 16 0 73 0;
#X connect 17 0 76 0;
#X connect 18 0 79 0;
#X connect 19 0 82 0;
#X connect 20 0 85 0;
#X connect 21 0 88 0;
#X connect 22 0 91 0;
#X connect 23 0 94 0;
#X connect 24 0 97 0;
#X connect 25 0 100 0;
#X connect 26 0 27 0;
#X connect 27 0 1 0;
#X connect 29 0 30 0;
#X connect 30 0 2 0;
#X connect 32 0 33 0;
#X connect 33 0 3 0;
#X connect 35 0 36 0;
#X connect 36 0 4 0;
#X connect 38 0 39 0;
#X connect 39 0 5 0;
#X connect 41 0 42 0;
#X connect 42 0 6 0;
#X connect 44 0 45 0;
#X connect 45 0 7 0;
#X connect 47 0 48 0;
#X connect 48 0 8 0;
#X connect 50 0 51 0;
#X connect 51 0 9 0;
#X connect 53 0 54 0;
#X connect 54 0 10 0;
#X connect 56 0 57 0;
#X connect 57 0 11 0;
#X connect 59 0 60 0;
#X connect 60 0 12 0;
#X connect 62 0 63 0;
#X connect 63 0 13 0;
#X connect 65 0 66 0;
#X connect 66 0 14 0;
#X connect 68 0 69 0;
#X connect 69 0 15 0;
#X connect 71 0 72 0;
#X connect 72 0 16 0;
#X connect 74 0 75 0;
#X connect 75 0 17 0;
#X connect 77 0 78 0;
#X connect 78 0 18 0;
#X connect 80 0 81 0;
#X connect 81 0 19 0;
#X connect 83 0 84 0;
#X connect 84 0 20 0;
#X connect 86 0 87 0;
#X connect 87 0 21 0;
#X connect 89 0 90 0;
#X connect 90 0 22 0;
#X connect 92 0 93 0;
#X connect 93 0 23 0;
#X connect 95 0 96 0;
#X connect 96 0 24 0;
#X connect 98 0 99 0;
#X connect 99 0 25 0;
#X connect 101 0 27 3;
#X connect 101 0 26 3;
#X connect 101 0 29 3;
#X connect 101 0 30 3;
#X connect 101 0 32 3;
#X connect 101 0 33 3;
#X connect 101 0 35 3;
#X connect 101 0 36 3;
#X connect 101 0 38 3;
#X connect 101 0 39 3;
#X connect 101 0 41 3;
#X connect 101 0 42 3;
#X connect 101 0 44 3;
#X connect 101 0 45 3;
#X connect 101 0 47 3;
#X connect 101 0 48 3;
#X connect 102 0 51 3;
#X connect 102 0 50 3;
#X connect 102 0 54 3;
#X connect 102 0 53 3;
#X connect 102 0 57 3;
#X connect 102 0 56 3;
#X connect 102 0 60 3;
#X connect 102 0 59 3;
#X connect 102 0 62 3;
#X connect 102 0 63 3;
#X connect 102 0 65 3;
#X connect 102 0 66 3;
#X connect 102 0 68 3;
#X connect 102 0 69 3;
#X connect 102 0 71 3;
#X connect 102 0 72 3;
#X connect 103 0 75 3;
#X connect 103 0 74 3;
#X connect 103 0 77 3;
#X connect 103 0 80 3;
#X connect 103 0 78 3;
#X connect 103 0 81 3;
#X connect 103 0 83 3;
#X connect 103 0 84 3;
#X connect 103 0 86 3;
#X connect 103 0 87 3;
#X connect 103 0 89 3;
#X connect 103 0 90 3;
#X connect 103 0 92 3;
#X connect 103 0 93 3;
#X connect 103 0 95 3;
#X connect 103 0 96 3;
#X connect 103 0 98 3;
#X connect 103 0 99 3;
#X restore 89 55 pd filtros2;
#N canvas 196 184 1200 612 filtros3 0;
#X obj 9 12 inlet~;
#X obj 9 156 peakamp~ 25;
#X obj 156 156 peakamp~ 25;
#X obj 303 156 peakamp~ 25;
#X obj 451 156 peakamp~ 25;
#X obj 600 156 peakamp~ 25;
#X obj 749 156 peakamp~ 25;
#X obj 898 156 peakamp~ 25;
#X obj 1047 156 peakamp~ 25;
#X obj 9 286 peakamp~ 25;
#X obj 156 286 peakamp~ 25;
#X obj 303 286 peakamp~ 25;
#X obj 451 286 peakamp~ 25;
#X obj 600 286 peakamp~ 25;
#X obj 749 286 peakamp~ 25;
#X obj 898 286 peakamp~ 25;
#X obj 1047 286 peakamp~ 25;
#X obj 9 416 peakamp~ 25;
#X obj 156 416 peakamp~ 25;
#X obj 303 416 peakamp~ 25;
#X obj 451 416 peakamp~ 25;
#X obj 600 416 peakamp~ 25;
#X obj 749 416 peakamp~ 25;
#X obj 898 416 peakamp~ 25;
#X obj 1047 416 peakamp~ 25;
#X obj 9 545 peakamp~ 25;
#X obj 9 104 reson~ 1 359.188 16.817;
#X obj 9 130 reson~ 1 359.188 16.817;
#X obj 9 182 s F51;
#X obj 156 104 reson~ 1 380.546 16.817;
#X obj 156 130 reson~ 1 380.546 16.817;
#X obj 303 104 reson~ 1 403.175 16.817;
#X obj 303 130 reson~ 1 403.175 16.817;
#X obj 451 104 reson~ 1 427.149 16.817;
#X obj 451 130 reson~ 1 427.149 16.817;
#X obj 600 104 reson~ 1 452.548 16.817;
#X obj 600 130 reson~ 1 452.548 16.817;
#X obj 749 104 reson~ 1 479.458 16.817;
#X obj 749 130 reson~ 1 479.458 16.817;
#X obj 898 104 reson~ 1 507.968 16.817;
#X obj 898 130 reson~ 1 507.968 16.817;
#X obj 1047 104 reson~ 1 538.174 16.817;
#X obj 1047 130 reson~ 1 538.174 16.817;
#X obj 156 182 s F52;
#X obj 303 182 s F53;
#X obj 451 182 s F54;
#X obj 600 182 s F55;
#X obj 749 182 s F56;
#X obj 898 182 s F57;
#X obj 1047 182 s F58;
#X obj 9 234 reson~ 1 570.175 16.817;
#X obj 9 260 reson~ 1 570.175 16.817;
#X obj 9 312 s F59;
#X obj 156 234 reson~ 1 604.08 16.817;
#X obj 156 260 reson~ 1 604.08 16.817;
#X obj 156 312 s F60;
#X obj 303 234 reson~ 1 640 16.817;
#X obj 303 260 reson~ 1 640 16.817;
#X obj 303 312 s F61;
#X obj 451 234 reson~ 1 678.056 16.817;
#X obj 451 260 reson~ 1 678.056 16.817;
#X obj 451 312 s F62;
#X obj 600 234 reson~ 1 718.376 16.817;
#X obj 600 260 reson~ 1 718.376 16.817;
#X obj 600 312 s F63;
#X obj 749 234 reson~ 1 761.093 16.817;
#X obj 749 260 reson~ 1 761.093 16.817;
#X obj 749 312 s F64;
#X obj 898 234 reson~ 1 806.349 16.817;
#X obj 898 260 reson~ 1 806.349 16.817;
#X obj 898 312 s F65;
#X obj 1047 234 reson~ 1 854.298 16.817;
#X obj 1047 260 reson~ 1 854.298 16.817;
#X obj 1047 312 s F66;
#X obj 9 364 reson~ 1 905.097 16.817;
#X obj 9 390 reson~ 1 905.097 16.817;
#X obj 9 442 s F67;
#X obj 156 364 reson~ 1 958.917 16.817;
#X obj 156 390 reson~ 1 958.917 16.817;
#X obj 156 442 s F68;
#X obj 303 364 reson~ 1 1015.94 16.817;
#X obj 303 390 reson~ 1 1015.94 16.817;
#X obj 303 442 s F69;
#X obj 451 364 reson~ 1 1076.35 16.817;
#X obj 451 390 reson~ 1 1076.35 16.817;
#X obj 451 442 s F70;
#X obj 600 364 reson~ 1 1140.35 16.817;
#X obj 600 390 reson~ 1 1140.35 16.817;
#X obj 600 442 s F71;
#X obj 749 364 reson~ 1 1208.16 16.817;
#X obj 749 390 reson~ 1 1208.16 16.817;
#X obj 749 442 s F72;
#X obj 898 364 reson~ 1 1280 16.817;
#X obj 898 390 reson~ 1 1280 16.817;
#X obj 898 442 s F73;
#X obj 1047 364 reson~ 1 1356.11 16.817;
#X obj 1047 390 reson~ 1 1356.11 16.817;
#X obj 1047 442 s F74;
#X obj 9 493 reson~ 1 1436.75 16.817;
#X obj 9 519 reson~ 1 1436.75 16.817;
#X obj 9 571 s F75;
#X obj 86 156 r Q;
#X obj 84 286 r Q;
#X obj 86 417 r Q;
#X connect 0 0 26 0;
#X connect 0 0 29 0;
#X connect 0 0 31 0;
#X connect 0 0 33 0;
#X connect 0 0 35 0;
#X connect 0 0 37 0;
#X connect 0 0 39 0;
#X connect 0 0 41 0;
#X connect 0 0 50 0;
#X connect 0 0 53 0;
#X connect 0 0 56 0;
#X connect 0 0 59 0;
#X connect 0 0 62 0;
#X connect 0 0 65 0;
#X connect 0 0 68 0;
#X connect 0 0 71 0;
#X connect 0 0 74 0;
#X connect 0 0 77 0;
#X connect 0 0 80 0;
#X connect 0 0 83 0;
#X connect 0 0 86 0;
#X connect 0 0 89 0;
#X connect 0 0 92 0;
#X connect 0 0 95 0;
#X connect 0 0 98 0;
#X connect 1 0 28 0;
#X connect 2 0 43 0;
#X connect 3 0 44 0;
#X connect 4 0 45 0;
#X connect 5 0 46 0;
#X connect 6 0 47 0;
#X connect 7 0 48 0;
#X connect 8 0 49 0;
#X connect 9 0 52 0;
#X connect 10 0 55 0;
#X connect 11 0 58 0;
#X connect 12 0 61 0;
#X connect 13 0 64 0;
#X connect 14 0 67 0;
#X connect 15 0 70 0;
#X connect 16 0 73 0;
#X connect 17 0 76 0;
#X connect 18 0 79 0;
#X connect 19 0 82 0;
#X connect 20 0 85 0;
#X connect 21 0 88 0;
#X connect 22 0 91 0;
#X connect 23 0 94 0;
#X connect 24 0 97 0;
#X connect 25 0 100 0;
#X connect 26 0 27 0;
#X connect 27 0 1 0;
#X connect 29 0 30 0;
#X connect 30 0 2 0;
#X connect 31 0 32 0;
#X connect 32 0 3 0;
#X connect 33 0 34 0;
#X connect 34 0 4 0;
#X connect 35 0 36 0;
#X connect 36 0 5 0;
#X connect 37 0 38 0;
#X connect 38 0 6 0;
#X connect 39 0 40 0;
#X connect 40 0 7 0;
#X connect 41 0 42 0;
#X connect 42 0 8 0;
#X connect 50 0 51 0;
#X connect 51 0 9 0;
#X connect 53 0 54 0;
#X connect 54 0 10 0;
#X connect 56 0 57 0;
#X connect 57 0 11 0;
#X connect 59 0 60 0;
#X connect 60 0 12 0;
#X connect 62 0 63 0;
#X connect 63 0 13 0;
#X connect 65 0 66 0;
#X connect 66 0 14 0;
#X connect 68 0 69 0;
#X connect 69 0 15 0;
#X connect 71 0 72 0;
#X connect 72 0 16 0;
#X connect 74 0 75 0;
#X connect 75 0 17 0;
#X connect 77 0 78 0;
#X connect 78 0 18 0;
#X connect 80 0 81 0;
#X connect 81 0 19 0;
#X connect 83 0 84 0;
#X connect 84 0 20 0;
#X connect 86 0 87 0;
#X connect 87 0 21 0;
#X connect 89 0 90 0;
#X connect 90 0 22 0;
#X connect 92 0 93 0;
#X connect 93 0 23 0;
#X connect 95 0 96 0;
#X connect 96 0 24 0;
#X connect 98 0 99 0;
#X connect 99 0 25 0;
#X connect 101 0 27 3;
#X connect 101 0 26 3;
#X connect 101 0 30 3;
#X connect 101 0 29 3;
#X connect 101 0 32 3;
#X connect 101 0 31 3;
#X connect 101 0 34 3;
#X connect 101 0 33 3;
#X connect 101 0 36 3;
#X connect 101 0 35 3;
#X connect 101 0 38 3;
#X connect 101 0 37 3;
#X connect 101 0 40 3;
#X connect 101 0 39 3;
#X connect 101 0 42 3;
#X connect 101 0 41 3;
#X connect 102 0 51 3;
#X connect 102 0 50 3;
#X connect 102 0 54 3;
#X connect 102 0 53 3;
#X connect 102 0 57 3;
#X connect 102 0 56 3;
#X connect 102 0 60 3;
#X connect 102 0 59 3;
#X connect 102 0 63 3;
#X connect 102 0 62 3;
#X connect 102 0 66 3;
#X connect 102 0 65 3;
#X connect 102 0 69 3;
#X connect 102 0 68 3;
#X connect 102 0 72 3;
#X connect 102 0 71 3;
#X connect 103 0 75 3;
#X connect 103 0 74 3;
#X connect 103 0 78 3;
#X connect 103 0 77 3;
#X connect 103 0 81 3;
#X connect 103 0 80 3;
#X connect 103 0 84 3;
#X connect 103 0 83 3;
#X connect 103 0 87 3;
#X connect 103 0 86 3;
#X connect 103 0 90 3;
#X connect 103 0 89 3;
#X connect 103 0 93 3;
#X connect 103 0 92 3;
#X connect 103 0 96 3;
#X connect 103 0 95 3;
#X connect 103 0 98 3;
#X connect 103 0 99 3;
#X restore 163 55 pd filtros3;
#N canvas 184 171 1223 629 filtros4 0;
#X obj 19 22 inlet~;
#X obj 19 166 peakamp~ 25;
#X obj 166 166 peakamp~ 25;
#X obj 313 166 peakamp~ 25;
#X obj 461 166 peakamp~ 25;
#X obj 610 166 peakamp~ 25;
#X obj 759 166 peakamp~ 25;
#X obj 908 166 peakamp~ 25;
#X obj 1057 166 peakamp~ 25;
#X obj 19 296 peakamp~ 25;
#X obj 166 296 peakamp~ 25;
#X obj 313 296 peakamp~ 25;
#X obj 461 296 peakamp~ 25;
#X obj 610 296 peakamp~ 25;
#X obj 759 296 peakamp~ 25;
#X obj 908 296 peakamp~ 25;
#X obj 1057 296 peakamp~ 25;
#X obj 19 426 peakamp~ 25;
#X obj 166 426 peakamp~ 25;
#X obj 313 426 peakamp~ 25;
#X obj 461 426 peakamp~ 25;
#X obj 610 426 peakamp~ 25;
#X obj 759 426 peakamp~ 25;
#X obj 908 426 peakamp~ 25;
#X obj 1057 426 peakamp~ 25;
#X obj 19 555 peakamp~ 25;
#X obj 19 114 reson~ 1 1522.19 16.817;
#X obj 19 140 reson~ 1 1522.19 16.817;
#X obj 19 192 s F76;
#X obj 166 114 reson~ 1 1612.7 16.817;
#X obj 166 140 reson~ 1 1612.7 16.817;
#X obj 166 192 s F77;
#X obj 313 114 reson~ 1 1708.59 16.817;
#X obj 313 140 reson~ 1 1708.59 16.817;
#X obj 313 192 s F78;
#X obj 461 114 reson~ 1 1810.19 16.817;
#X obj 461 140 reson~ 1 1810.19 16.817;
#X obj 461 192 s F79;
#X obj 610 114 reson~ 1 1917.83 16.817;
#X obj 610 140 reson~ 1 1917.83 16.817;
#X obj 610 192 s F80;
#X obj 759 114 reson~ 1 2031.87 16.817;
#X obj 759 140 reson~ 1 2031.87 16.817;
#X obj 759 192 s F81;
#X obj 908 114 reson~ 1 2152.7 16.817;
#X obj 908 140 reson~ 1 2152.7 16.817;
#X obj 908 192 s F82;
#X obj 1057 114 reson~ 1 2280.7 16.817;
#X obj 1057 140 reson~ 1 2280.7 16.817;
#X obj 1057 192 s F83;
#X obj 19 244 reson~ 1 2416.32 16.817;
#X obj 19 270 reson~ 1 2416.32 16.817;
#X obj 19 322 s F84;
#X obj 166 244 reson~ 1 2560 16.817;
#X obj 166 270 reson~ 1 2560 16.817;
#X obj 166 322 s F85;
#X obj 313 244 reson~ 1 2712.23 16.817;
#X obj 313 270 reson~ 1 2712.23 16.817;
#X obj 313 322 s F86;
#X obj 461 244 reson~ 1 2873.5 16.817;
#X obj 461 270 reson~ 1 2873.5 16.817;
#X obj 461 322 s F87;
#X obj 610 244 reson~ 1 3044.37 16.817;
#X obj 610 270 reson~ 1 3044.37 16.817;
#X obj 610 322 s F88;
#X obj 759 244 reson~ 1 3225.4 16.817;
#X obj 759 270 reson~ 1 3225.4 16.817;
#X obj 759 322 s F89;
#X obj 908 244 reson~ 1 3417.19 16.817;
#X obj 908 270 reson~ 1 3417.19 16.817;
#X obj 908 322 s F90;
#X obj 1057 244 reson~ 1 3620.39 16.817;
#X obj 1057 270 reson~ 1 3620.39 16.817;
#X obj 1057 322 s F91;
#X obj 19 374 reson~ 1 3835.67 16.817;
#X obj 19 400 reson~ 1 3835.67 16.817;
#X obj 19 452 s F92;
#X obj 166 374 reson~ 1 4063.75 16.817;
#X obj 166 400 reson~ 1 4063.75 16.817;
#X obj 166 452 s F93;
#X obj 313 374 reson~ 1 4305.39 16.817;
#X obj 313 400 reson~ 1 4305.39 16.817;
#X obj 313 452 s F94;
#X obj 461 374 reson~ 1 4561.4 16.817;
#X obj 461 400 reson~ 1 4561.4 16.817;
#X obj 461 452 s F95;
#X obj 610 374 reson~ 1 4832.64 16.817;
#X obj 610 400 reson~ 1 4832.64 16.817;
#X obj 610 452 s F96;
#X obj 759 374 reson~ 1 5120 16.817;
#X obj 759 400 reson~ 1 5120 16.817;
#X obj 759 452 s F97;
#X obj 908 374 reson~ 1 5424.45 16.817;
#X obj 908 400 reson~ 1 5424.45 16.817;
#X obj 908 452 s F98;
#X obj 1057 374 reson~ 1 5747.01 16.817;
#X obj 1057 400 reson~ 1 5747.01 16.817;
#X obj 1057 452 s F99;
#X obj 19 503 reson~ 1 6088.74 16.817;
#X obj 19 529 reson~ 1 6088.74 16.817;
#X obj 19 581 s F100;
#X obj 96 167 r Q;
#X obj 97 296 r Q;
#X obj 97 426 r Q;
#X connect 0 0 26 0;
#X connect 0 0 29 0;
#X connect 0 0 32 0;
#X connect 0 0 35 0;
#X connect 0 0 38 0;
#X connect 0 0 41 0;
#X connect 0 0 44 0;
#X connect 0 0 47 0;
#X connect 0 0 50 0;
#X connect 0 0 53 0;
#X connect 0 0 56 0;
#X connect 0 0 59 0;
#X connect 0 0 62 0;
#X connect 0 0 65 0;
#X connect 0 0 68 0;
#X connect 0 0 71 0;
#X connect 0 0 74 0;
#X connect 0 0 77 0;
#X connect 0 0 80 0;
#X connect 0 0 83 0;
#X connect 0 0 86 0;
#X connect 0 0 89 0;
#X connect 0 0 92 0;
#X connect 0 0 95 0;
#X connect 0 0 98 0;
#X connect 1 0 28 0;
#X connect 2 0 31 0;
#X connect 3 0 34 0;
#X connect 4 0 37 0;
#X connect 5 0 40 0;
#X connect 6 0 43 0;
#X connect 7 0 46 0;
#X connect 8 0 49 0;
#X connect 9 0 52 0;
#X connect 10 0 55 0;
#X connect 11 0 58 0;
#X connect 12 0 61 0;
#X connect 13 0 64 0;
#X connect 14 0 67 0;
#X connect 15 0 70 0;
#X connect 16 0 73 0;
#X connect 17 0 76 0;
#X connect 18 0 79 0;
#X connect 19 0 82 0;
#X connect 20 0 85 0;
#X connect 21 0 88 0;
#X connect 22 0 91 0;
#X connect 23 0 94 0;
#X connect 24 0 97 0;
#X connect 25 0 100 0;
#X connect 26 0 27 0;
#X connect 27 0 1 0;
#X connect 29 0 30 0;
#X connect 30 0 2 0;
#X connect 32 0 33 0;
#X connect 33 0 3 0;
#X connect 35 0 36 0;
#X connect 36 0 4 0;
#X connect 38 0 39 0;
#X connect 39 0 5 0;
#X connect 41 0 42 0;
#X connect 42 0 6 0;
#X connect 44 0 45 0;
#X connect 45 0 7 0;
#X connect 47 0 48 0;
#X connect 48 0 8 0;
#X connect 50 0 51 0;
#X connect 51 0 9 0;
#X connect 53 0 54 0;
#X connect 54 0 10 0;
#X connect 56 0 57 0;
#X connect 57 0 11 0;
#X connect 59 0 60 0;
#X connect 60 0 12 0;
#X connect 62 0 63 0;
#X connect 63 0 13 0;
#X connect 65 0 66 0;
#X connect 66 0 14 0;
#X connect 68 0 69 0;
#X connect 69 0 15 0;
#X connect 71 0 72 0;
#X connect 72 0 16 0;
#X connect 74 0 75 0;
#X connect 75 0 17 0;
#X connect 77 0 78 0;
#X connect 78 0 18 0;
#X connect 80 0 81 0;
#X connect 81 0 19 0;
#X connect 83 0 84 0;
#X connect 84 0 20 0;
#X connect 86 0 87 0;
#X connect 87 0 21 0;
#X connect 89 0 90 0;
#X connect 90 0 22 0;
#X connect 92 0 93 0;
#X connect 93 0 23 0;
#X connect 95 0 96 0;
#X connect 96 0 24 0;
#X connect 98 0 99 0;
#X connect 99 0 25 0;
#X connect 101 0 27 3;
#X connect 101 0 26 3;
#X connect 101 0 30 3;
#X connect 101 0 29 3;
#X connect 101 0 33 3;
#X connect 101 0 32 3;
#X connect 101 0 36 3;
#X connect 101 0 35 3;
#X connect 101 0 39 3;
#X connect 101 0 38 3;
#X connect 101 0 42 3;
#X connect 101 0 41 3;
#X connect 101 0 45 3;
#X connect 101 0 44 3;
#X connect 101 0 48 3;
#X connect 101 0 47 3;
#X connect 102 0 51 3;
#X connect 102 0 50 3;
#X connect 102 0 54 3;
#X connect 102 0 53 3;
#X connect 102 0 57 3;
#X connect 102 0 56 3;
#X connect 102 0 60 3;
#X connect 102 0 59 3;
#X connect 102 0 63 3;
#X connect 102 0 62 3;
#X connect 102 0 66 3;
#X connect 102 0 65 3;
#X connect 102 0 69 3;
#X connect 102 0 68 3;
#X connect 102 0 72 3;
#X connect 102 0 71 3;
#X connect 103 0 75 3;
#X connect 103 0 74 3;
#X connect 103 0 78 3;
#X connect 103 0 77 3;
#X connect 103 0 81 3;
#X connect 103 0 80 3;
#X connect 103 0 84 3;
#X connect 103 0 83 3;
#X connect 103 0 87 3;
#X connect 103 0 86 3;
#X connect 103 0 90 3;
#X connect 103 0 89 3;
#X connect 103 0 93 3;
#X connect 103 0 92 3;
#X connect 103 0 96 3;
#X connect 103 0 95 3;
#X connect 103 0 98 3;
#X connect 103 0 99 3;
#X restore 237 55 pd filtros4;
#N canvas 146 112 1247 524 filtros5 0;
#X obj 29 32 inlet~;
#X obj 29 176 peakamp~ 25;
#X obj 176 176 peakamp~ 25;
#X obj 323 176 peakamp~ 25;
#X obj 471 176 peakamp~ 25;
#X obj 620 176 peakamp~ 25;
#X obj 769 176 peakamp~ 25;
#X obj 918 176 peakamp~ 25;
#X obj 1067 176 peakamp~ 25;
#X obj 29 306 peakamp~ 25;
#X obj 176 306 peakamp~ 25;
#X obj 323 306 peakamp~ 25;
#X obj 471 306 peakamp~ 25;
#X obj 620 306 peakamp~ 25;
#X obj 769 306 peakamp~ 25;
#X obj 918 306 peakamp~ 25;
#X obj 1067 306 peakamp~ 25;
#X obj 29 436 peakamp~ 25;
#X obj 176 436 peakamp~ 25;
#X obj 323 436 peakamp~ 25;
#X obj 471 436 peakamp~ 25;
#X obj 620 436 peakamp~ 25;
#X obj 769 436 peakamp~ 25;
#X obj 918 436 peakamp~ 25;
#X obj 29 124 reson~ 1 6450.8 16.817;
#X obj 29 150 reson~ 1 6450.8 16.817;
#X obj 29 202 s F101;
#X obj 176 124 reson~ 1 6834.38 16.817;
#X obj 176 150 reson~ 1 6834.38 16.817;
#X obj 176 202 s F102;
#X obj 323 124 reson~ 1 7240.77 16.817;
#X obj 323 150 reson~ 1 7240.77 16.817;
#X obj 323 202 s F103;
#X obj 471 124 reson~ 1 7671.33 16.817;
#X obj 471 150 reson~ 1 7671.33 16.817;
#X obj 471 202 s F104;
#X obj 620 124 reson~ 1 8127.49 16.817;
#X obj 620 150 reson~ 1 8127.49 16.817;
#X obj 620 202 s F105;
#X obj 769 124 reson~ 1 8610.78 16.817;
#X obj 769 150 reson~ 1 8610.78 16.817;
#X obj 769 202 s F106;
#X obj 918 124 reson~ 1 9122.8 16.817;
#X obj 918 150 reson~ 1 9122.8 16.817;
#X obj 918 202 s F107;
#X obj 1067 124 reson~ 1 9665.27 16.817;
#X obj 1067 150 reson~ 1 9665.27 16.817;
#X obj 1067 202 s F108;
#X obj 29 254 reson~ 1 10240 16.817;
#X obj 29 280 reson~ 1 10240 16.817;
#X obj 29 332 s F109;
#X obj 176 254 reson~ 1 10848.9 16.817;
#X obj 176 280 reson~ 1 10848.9 16.817;
#X obj 176 332 s F110;
#X obj 323 254 reson~ 1 11494 16.817;
#X obj 323 280 reson~ 1 11494 16.817;
#X obj 323 332 s F111;
#X obj 471 254 reson~ 1 12177.5 16.817;
#X obj 471 280 reson~ 1 12177.5 16.817;
#X obj 471 332 s F112;
#X obj 620 254 reson~ 1 12901.6 16.817;
#X obj 620 280 reson~ 1 12901.6 16.817;
#X obj 620 332 s F113;
#X obj 769 254 reson~ 1 13668.8 16.817;
#X obj 769 280 reson~ 1 13668.8 16.817;
#X obj 769 332 s F114;
#X obj 918 254 reson~ 1 14481.5 16.817;
#X obj 918 280 reson~ 1 14481.5 16.817;
#X obj 918 332 s F115;
#X obj 1067 254 reson~ 1 15342.7 16.817;
#X obj 1067 280 reson~ 1 15342.7 16.817;
#X obj 1067 332 s F116;
#X obj 29 384 reson~ 1 16255 16.817;
#X obj 29 410 reson~ 1 16255 16.817;
#X obj 29 462 s F117;
#X obj 176 384 reson~ 1 17221.6 16.817;
#X obj 176 410 reson~ 1 17221.6 16.817;
#X obj 176 462 s F118;
#X obj 323 384 reson~ 1 18245.6 16.817;
#X obj 323 410 reson~ 1 18245.6 16.817;
#X obj 323 462 s F119;
#X obj 471 384 reson~ 1 19330.5 16.817;
#X obj 471 410 reson~ 1 19330.5 16.817;
#X obj 471 462 s F120;
#X obj 620 384 reson~ 1 20480 16.817;
#X obj 620 410 reson~ 1 20480 16.817;
#X obj 620 462 s F121;
#X obj 769 384 reson~ 1 21697.8 16.817;
#X obj 769 410 reson~ 1 21697.8 16.817;
#X obj 769 462 s F122;
#X obj 918 384 reson~ 1 22988 16.817;
#X obj 918 462 s F123;
#X obj 918 410 reson~ 1 22988 16.817;
#X obj 103 176 r Q;
#X obj 108 306 r Q;
#X obj 104 436 r Q;
#X connect 0 0 24 0;
#X connect 0 0 27 0;
#X connect 0 0 30 0;
#X connect 0 0 33 0;
#X connect 0 0 36 0;
#X connect 0 0 39 0;
#X connect 0 0 42 0;
#X connect 0 0 45 0;
#X connect 0 0 48 0;
#X connect 0 0 51 0;
#X connect 0 0 54 0;
#X connect 0 0 57 0;
#X connect 0 0 60 0;
#X connect 0 0 63 0;
#X connect 0 0 66 0;
#X connect 0 0 69 0;
#X connect 0 0 72 0;
#X connect 0 0 75 0;
#X connect 0 0 78 0;
#X connect 0 0 81 0;
#X connect 0 0 84 0;
#X connect 0 0 87 0;
#X connect 0 0 90 0;
#X connect 1 0 26 0;
#X connect 2 0 29 0;
#X connect 3 0 32 0;
#X connect 4 0 35 0;
#X connect 5 0 38 0;
#X connect 6 0 41 0;
#X connect 7 0 44 0;
#X connect 8 0 47 0;
#X connect 9 0 50 0;
#X connect 10 0 53 0;
#X connect 11 0 56 0;
#X connect 12 0 59 0;
#X connect 13 0 62 0;
#X connect 14 0 65 0;
#X connect 15 0 68 0;
#X connect 16 0 71 0;
#X connect 17 0 74 0;
#X connect 18 0 77 0;
#X connect 19 0 80 0;
#X connect 20 0 83 0;
#X connect 21 0 86 0;
#X connect 22 0 89 0;
#X connect 23 0 91 0;
#X connect 24 0 25 0;
#X connect 25 0 1 0;
#X connect 27 0 28 0;
#X connect 28 0 2 0;
#X connect 30 0 31 0;
#X connect 31 0 3 0;
#X connect 33 0 34 0;
#X connect 34 0 4 0;
#X connect 36 0 37 0;
#X connect 37 0 5 0;
#X connect 39 0 40 0;
#X connect 40 0 6 0;
#X connect 42 0 43 0;
#X connect 43 0 7 0;
#X connect 45 0 46 0;
#X connect 46 0 8 0;
#X connect 48 0 49 0;
#X connect 49 0 9 0;
#X connect 51 0 52 0;
#X connect 52 0 10 0;
#X connect 54 0 55 0;
#X connect 55 0 11 0;
#X connect 57 0 58 0;
#X connect 58 0 12 0;
#X connect 60 0 61 0;
#X connect 61 0 13 0;
#X connect 63 0 64 0;
#X connect 64 0 14 0;
#X connect 66 0 67 0;
#X connect 67 0 15 0;
#X connect 69 0 70 0;
#X connect 70 0 16 0;
#X connect 72 0 73 0;
#X connect 73 0 17 0;
#X connect 75 0 76 0;
#X connect 76 0 18 0;
#X connect 78 0 79 0;
#X connect 79 0 19 0;
#X connect 81 0 82 0;
#X connect 82 0 20 0;
#X connect 84 0 85 0;
#X connect 85 0 21 0;
#X connect 87 0 88 0;
#X connect 88 0 22 0;
#X connect 90 0 92 0;
#X connect 92 0 23 0;
#X connect 93 0 25 3;
#X connect 93 0 24 3;
#X connect 93 0 28 3;
#X connect 93 0 27 3;
#X connect 93 0 31 3;
#X connect 93 0 30 3;
#X connect 93 0 34 3;
#X connect 93 0 33 3;
#X connect 93 0 37 3;
#X connect 93 0 36 3;
#X connect 93 0 40 3;
#X connect 93 0 39 3;
#X connect 93 0 43 3;
#X connect 93 0 42 3;
#X connect 93 0 46 3;
#X connect 93 0 45 3;
#X connect 94 0 49 3;
#X connect 94 0 48 3;
#X connect 94 0 52 3;
#X connect 94 0 51 3;
#X connect 94 0 55 3;
#X connect 94 0 54 3;
#X connect 94 0 58 3;
#X connect 94 0 57 3;
#X connect 94 0 61 3;
#X connect 94 0 60 3;
#X connect 94 0 64 3;
#X connect 94 0 63 3;
#X connect 94 0 67 3;
#X connect 94 0 66 3;
#X connect 94 0 70 3;
#X connect 94 0 69 3;
#X connect 95 0 73 3;
#X connect 95 0 72 3;
#X connect 95 0 76 3;
#X connect 95 0 75 3;
#X connect 95 0 79 3;
#X connect 95 0 78 3;
#X connect 95 0 82 3;
#X connect 95 0 81 3;
#X connect 95 0 85 3;
#X connect 95 0 84 3;
#X connect 95 0 88 3;
#X connect 95 0 87 3;
#X connect 95 0 92 3;
#X connect 95 0 90 3;
#X restore 311 55 pd filtros5;
#X text 14 79 Análisis del audio entrante \, por segundas menores.
123 filtros divididos en cinco grupos.;
#X connect 0 0 1 0;
#X connect 0 0 2 0;
#X connect 0 0 3 0;
#X connect 0 0 4 0;
#X connect 0 0 5 0;
#X restore 210 241 pd inputanalisis;
#N canvas 39 191 499 172 resintesis 0;
#N canvas 149 58 1220 822 resintesis1 0;
#X obj 40 35 inlet~;
#X obj 40 120 reson~ 1 20 16.817;
#X obj 40 146 reson~ 1 20 16.817;
#X obj 181 120 reson~ 1 21.189 16.817;
#X obj 181 146 reson~ 1 21.189 16.817;
#X obj 322 120 reson~ 1 22.449 16.817;
#X obj 322 146 reson~ 1 22.449 16.817;
#X obj 463 120 reson~ 1 23.784 16.817;
#X obj 463 146 reson~ 1 23.784 16.817;
#X obj 604 120 reson~ 1 25.198 16.817;
#X obj 604 146 reson~ 1 25.198 16.817;
#X obj 745 120 reson~ 1 26.697 16.817;
#X obj 745 146 reson~ 1 26.697 16.817;
#X obj 886 120 reson~ 1 28.284 16.817;
#X obj 886 146 reson~ 1 28.284 16.817;
#X obj 1027 120 reson~ 1 29.966 16.817;
#X obj 1027 146 reson~ 1 29.966 16.817;
#X obj 40 297 reson~ 1 31.748 16.817;
#X obj 40 323 reson~ 1 31.748 16.817;
#X obj 181 297 reson~ 1 33.636 16.817;
#X obj 181 323 reson~ 1 33.636 16.817;
#X obj 322 297 reson~ 1 35.636 16.817;
#X obj 322 323 reson~ 1 35.636 16.817;
#X obj 463 297 reson~ 1 37.755 16.817;
#X obj 463 323 reson~ 1 37.755 16.817;
#X obj 604 297 reson~ 1 40 16.817;
#X obj 604 323 reson~ 1 40 16.817;
#X obj 745 297 reson~ 1 42.379 16.817;
#X obj 745 323 reson~ 1 42.379 16.817;
#X obj 886 297 reson~ 1 44.898 16.817;
#X obj 886 323 reson~ 1 44.898 16.817;
#X obj 1027 297 reson~ 1 47.568 16.817;
#X obj 1027 323 reson~ 1 47.568 16.817;
#X obj 40 475 reson~ 1 50.397 16.817;
#X obj 40 501 reson~ 1 50.397 16.817;
#X obj 181 475 reson~ 1 53.394 16.817;
#X obj 181 501 reson~ 1 53.394 16.817;
#X obj 322 475 reson~ 1 56.569 16.817;
#X obj 322 501 reson~ 1 56.569 16.817;
#X obj 463 475 reson~ 1 59.932 16.817;
#X obj 463 501 reson~ 1 59.932 16.817;
#X obj 604 475 reson~ 1 63.496 16.817;
#X obj 604 501 reson~ 1 63.496 16.817;
#X obj 745 475 reson~ 1 67.272 16.817;
#X obj 745 501 reson~ 1 67.272 16.817;
#X obj 886 475 reson~ 1 71.272 16.817;
#X obj 886 501 reson~ 1 71.272 16.817;
#X obj 1027 475 reson~ 1 75.51 16.817;
#X obj 1027 501 reson~ 1 75.51 16.817;
#X obj 40 652 reson~ 1 80 16.817;
#X obj 40 678 reson~ 1 80 16.817;
#X obj 40 171 *~;
#X obj 111 215 line~;
#X obj 117 172 r F1;
#X obj 181 171 *~;
#X obj 240 214 line~;
#X obj 240 171 r F2;
#X obj 322 170 *~;
#X obj 381 214 line~;
#X obj 463 170 *~;
#X obj 522 213 line~;
#X obj 604 170 *~;
#X obj 663 214 line~;
#X obj 745 170 *~;
#X obj 804 213 line~;
#X obj 886 169 *~;
#X obj 945 213 line~;
#X obj 1027 169 *~;
#X obj 1086 212 line~;
#X obj 381 171 r F3;
#X obj 522 170 r F4;
#X obj 663 171 r F5;
#X obj 804 170 r F6;
#X obj 945 170 r F7;
#X obj 1086 169 r F8;
#X obj 40 349 *~;
#X obj 99 393 line~;
#X obj 181 349 *~;
#X obj 240 392 line~;
#X obj 322 348 *~;
#X obj 381 392 line~;
#X obj 463 348 *~;
#X obj 522 391 line~;
#X obj 604 348 *~;
#X obj 663 392 line~;
#X obj 745 348 *~;
#X obj 804 391 line~;
#X obj 886 347 *~;
#X obj 945 391 line~;
#X obj 1027 347 *~;
#X obj 1086 390 line~;
#X obj 99 350 r F9;
#X obj 240 349 r F10;
#X obj 381 349 r F11;
#X obj 522 348 r F12;
#X obj 663 349 r F13;
#X obj 804 348 r F14;
#X obj 945 348 r F15;
#X obj 1086 347 r F16;
#X obj 40 237 throw~ resintesis;
#X obj 181 237 throw~ resintesis;
#X obj 322 237 throw~ resintesis;
#X obj 463 237 throw~ resintesis;
#X obj 604 237 throw~ resintesis;
#X obj 745 236 throw~ resintesis;
#X obj 886 236 throw~ resintesis;
#X obj 1027 236 throw~ resintesis;
#X obj 40 415 throw~ resintesis;
#X obj 181 414 throw~ resintesis;
#X obj 322 414 throw~ resintesis;
#X obj 464 414 throw~ resintesis;
#X obj 604 415 throw~ resintesis;
#X obj 745 414 throw~ resintesis;
#X obj 886 414 throw~ resintesis;
#X obj 1027 412 throw~ resintesis;
#X obj 40 528 *~;
#X obj 99 572 line~;
#X obj 181 528 *~;
#X obj 240 571 line~;
#X obj 322 527 *~;
#X obj 381 571 line~;
#X obj 463 527 *~;
#X obj 522 570 line~;
#X obj 604 527 *~;
#X obj 663 571 line~;
#X obj 745 527 *~;
#X obj 804 570 line~;
#X obj 886 526 *~;
#X obj 945 570 line~;
#X obj 1027 526 *~;
#X obj 1086 569 line~;
#X obj 40 594 throw~ resintesis;
#X obj 181 593 throw~ resintesis;
#X obj 322 593 throw~ resintesis;
#X obj 464 593 throw~ resintesis;
#X obj 604 594 throw~ resintesis;
#X obj 745 593 throw~ resintesis;
#X obj 886 593 throw~ resintesis;
#X obj 1027 591 throw~ resintesis;
#X obj 99 529 r F17;
#X obj 240 528 r F18;
#X obj 381 528 r F19;
#X obj 522 527 r F20;
#X obj 663 528 r F21;
#X obj 804 527 r F22;
#X obj 945 527 r F23;
#X obj 1086 526 r F24;
#X obj 40 703 *~;
#X obj 99 746 line~;
#X obj 40 768 throw~ resintesis;
#X obj 99 703 r F25;
#X obj 155 197 r Q;
#X obj 217 264 r Q;
#X obj 147 447 r Q;
#X msg 250 192 \$1 25;
#X msg 538 194 \$1 25;
#X msg 1087 369 \$1 25;
#X msg 940 369 \$1 25;
#X msg 813 369 \$1 25;
#X msg 1098 188 \$1 25;
#X msg 950 192 \$1 25;
#X msg 808 191 \$1 25;
#X msg 668 192 \$1 25;
#X msg 400 189 \$1 25;
#X msg 104 195 \$1 25;
#X msg 662 370 \$1 25;
#X msg 531 369 \$1 25;
#X msg 393 370 \$1 25;
#X msg 254 371 \$1 25;
#X msg 101 371 \$1 25;
#X msg 98 724 \$1 25;
#X msg 1085 549 \$1 25;
#X msg 948 549 \$1 25;
#X msg 808 549 \$1 25;
#X msg 664 549 \$1 25;
#X msg 522 549 \$1 25;
#X msg 388 549 \$1 25;
#X msg 252 549 \$1 25;
#X msg 102 549 \$1 25;
#X connect 0 0 1 0;
#X connect 0 0 3 0;
#X connect 0 0 5 0;
#X connect 0 0 7 0;
#X connect 0 0 9 0;
#X connect 0 0 11 0;
#X connect 0 0 13 0;
#X connect 0 0 15 0;
#X connect 0 0 17 0;
#X connect 0 0 19 0;
#X connect 0 0 21 0;
#X connect 0 0 23 0;
#X connect 0 0 25 0;
#X connect 0 0 27 0;
#X connect 0 0 29 0;
#X connect 0 0 31 0;
#X connect 0 0 33 0;
#X connect 0 0 35 0;
#X connect 0 0 37 0;
#X connect 0 0 39 0;
#X connect 0 0 41 0;
#X connect 0 0 43 0;
#X connect 0 0 45 0;
#X connect 0 0 47 0;
#X connect 0 0 49 0;
#X connect 1 0 2 0;
#X connect 2 0 51 0;
#X connect 3 0 4 0;
#X connect 4 0 54 0;
#X connect 5 0 6 0;
#X connect 6 0 57 0;
#X connect 7 0 8 0;
#X connect 8 0 59 0;
#X connect 9 0 10 0;
#X connect 10 0 61 0;
#X connect 11 0 12 0;
#X connect 12 0 63 0;
#X connect 13 0 14 0;
#X connect 14 0 65 0;
#X connect 15 0 16 0;
#X connect 16 0 67 0;
#X connect 17 0 18 0;
#X connect 18 0 75 0;
#X connect 19 0 20 0;
#X connect 20 0 77 0;
#X connect 21 0 22 0;
#X connect 22 0 79 0;
#X connect 23 0 24 0;
#X connect 24 0 81 0;
#X connect 25 0 26 0;
#X connect 26 0 83 0;
#X connect 27 0 28 0;
#X connect 28 0 85 0;
#X connect 29 0 30 0;
#X connect 30 0 87 0;
#X connect 31 0 32 0;
#X connect 32 0 89 0;
#X connect 33 0 34 0;
#X connect 34 0 115 0;
#X connect 35 0 36 0;
#X connect 36 0 117 0;
#X connect 37 0 38 0;
#X connect 38 0 119 0;
#X connect 39 0 40 0;
#X connect 40 0 121 0;
#X connect 41 0 42 0;
#X connect 42 0 123 0;
#X connect 43 0 44 0;
#X connect 44 0 125 0;
#X connect 45 0 46 0;
#X connect 46 0 127 0;
#X connect 47 0 48 0;
#X connect 48 0 129 0;
#X connect 49 0 50 0;
#X connect 50 0 147 0;
#X connect 51 0 99 0;
#X connect 52 0 51 1;
#X connect 53 0 164 0;
#X connect 54 0 100 0;
#X connect 55 0 54 1;
#X connect 56 0 154 0;
#X connect 57 0 101 0;
#X connect 58 0 57 1;
#X connect 59 0 102 0;
#X connect 60 0 59 1;
#X connect 61 0 103 0;
#X connect 62 0 61 1;
#X connect 63 0 104 0;
#X connect 64 0 63 1;
#X connect 65 0 105 0;
#X connect 66 0 65 1;
#X connect 67 0 106 0;
#X connect 68 0 67 1;
#X connect 69 0 163 0;
#X connect 70 0 155 0;
#X connect 71 0 162 0;
#X connect 72 0 161 0;
#X connect 73 0 160 0;
#X connect 74 0 159 0;
#X connect 75 0 107 0;
#X connect 76 0 75 1;
#X connect 77 0 108 0;
#X connect 78 0 77 1;
#X connect 79 0 109 0;
#X connect 80 0 79 1;
#X connect 81 0 110 0;
#X connect 82 0 81 1;
#X connect 83 0 111 0;
#X connect 84 0 83 1;
#X connect 85 0 112 0;
#X connect 86 0 85 1;
#X connect 87 0 113 0;
#X connect 88 0 87 1;
#X connect 89 0 114 0;
#X connect 90 0 89 1;
#X connect 91 0 169 0;
#X connect 92 0 168 0;
#X connect 93 0 167 0;
#X connect 94 0 166 0;
#X connect 95 0 165 0;
#X connect 96 0 158 0;
#X connect 97 0 157 0;
#X connect 98 0 156 0;
#X connect 115 0 131 0;
#X connect 116 0 115 1;
#X connect 117 0 132 0;
#X connect 118 0 117 1;
#X connect 119 0 133 0;
#X connect 120 0 119 1;
#X connect 121 0 134 0;
#X connect 122 0 121 1;
#X connect 123 0 135 0;
#X connect 124 0 123 1;
#X connect 125 0 136 0;
#X connect 126 0 125 1;
#X connect 127 0 137 0;
#X connect 128 0 127 1;
#X connect 129 0 138 0;
#X connect 130 0 129 1;
#X connect 139 0 178 0;
#X connect 140 0 177 0;
#X connect 141 0 176 0;
#X connect 142 0 175 0;
#X connect 143 0 174 0;
#X connect 144 0 173 0;
#X connect 145 0 172 0;
#X connect 146 0 171 0;
#X connect 147 0 149 0;
#X connect 148 0 147 1;
#X connect 150 0 170 0;
#X connect 151 0 15 3;
#X connect 151 0 16 3;
#X connect 151 0 1 3;
#X connect 151 0 2 3;
#X connect 151 0 3 3;
#X connect 151 0 4 3;
#X connect 151 0 5 3;
#X connect 151 0 6 3;
#X connect 151 0 7 3;
#X connect 151 0 8 3;
#X connect 151 0 9 3;
#X connect 151 0 10 3;
#X connect 151 0 11 3;
#X connect 151 0 12 3;
#X connect 151 0 13 3;
#X connect 151 0 14 3;
#X connect 152 0 17 3;
#X connect 152 0 18 3;
#X connect 152 0 19 3;
#X connect 152 0 20 3;
#X connect 152 0 21 3;
#X connect 152 0 22 3;
#X connect 152 0 23 3;
#X connect 152 0 24 3;
#X connect 152 0 25 3;
#X connect 152 0 26 3;
#X connect 152 0 27 3;
#X connect 152 0 28 3;
#X connect 152 0 29 3;
#X connect 152 0 30 3;
#X connect 152 0 31 3;
#X connect 152 0 32 3;
#X connect 153 0 33 3;
#X connect 153 0 34 3;
#X connect 153 0 35 3;
#X connect 153 0 36 3;
#X connect 153 0 37 3;
#X connect 153 0 38 3;
#X connect 153 0 39 3;
#X connect 153 0 40 3;
#X connect 153 0 41 3;
#X connect 153 0 42 3;
#X connect 153 0 43 3;
#X connect 153 0 44 3;
#X connect 153 0 45 3;
#X connect 153 0 46 3;
#X connect 153 0 47 3;
#X connect 153 0 48 3;
#X connect 153 0 49 3;
#X connect 153 0 50 3;
#X connect 154 0 55 0;
#X connect 155 0 60 0;
#X connect 156 0 90 0;
#X connect 157 0 88 0;
#X connect 158 0 86 0;
#X connect 159 0 68 0;
#X connect 160 0 66 0;
#X connect 161 0 64 0;
#X connect 162 0 62 0;
#X connect 163 0 58 0;
#X connect 164 0 52 0;
#X connect 165 0 84 0;
#X connect 166 0 82 0;
#X connect 167 0 80 0;
#X connect 168 0 78 0;
#X connect 169 0 76 0;
#X connect 170 0 148 0;
#X connect 171 0 130 0;
#X connect 172 0 128 0;
#X connect 173 0 126 0;
#X connect 174 0 124 0;
#X connect 175 0 122 0;
#X connect 176 0 120 0;
#X connect 177 0 118 0;
#X connect 178 0 116 0;
#X restore 18 61 pd resintesis1;
#N canvas 122 41 1299 818 resintesis2 0;
#X obj 50 26 inlet~;
#X obj 546 22 r Q;
#X obj 50 139 reson~ 1 84.757 16.817;
#X obj 50 165 reson~ 1 84.757 16.817;
#X obj 197 139 reson~ 1 89.797 16.817;
#X obj 197 165 reson~ 1 89.797 16.817;
#X obj 344 139 reson~ 1 95.137 16.817;
#X obj 344 165 reson~ 1 95.137 16.817;
#X obj 492 139 reson~ 1 100.794 16.817;
#X obj 492 165 reson~ 1 100.794 16.817;
#X obj 641 139 reson~ 1 106.787 16.817;
#X obj 641 165 reson~ 1 106.787 16.817;
#X obj 790 139 reson~ 1 113.137 16.817;
#X obj 790 165 reson~ 1 113.137 16.817;
#X obj 939 139 reson~ 1 119.865 16.817;
#X obj 939 165 reson~ 1 119.865 16.817;
#X obj 1088 139 reson~ 1 126.992 16.817;
#X obj 1088 165 reson~ 1 126.992 16.817;
#X obj 51 316 reson~ 1 134.543 16.817;
#X obj 51 342 reson~ 1 134.543 16.817;
#X obj 198 316 reson~ 1 142.544 16.817;
#X obj 198 342 reson~ 1 142.544 16.817;
#X obj 345 316 reson~ 1 151.02 16.817;
#X obj 345 342 reson~ 1 151.02 16.817;
#X obj 493 316 reson~ 1 160 16.817;
#X obj 493 342 reson~ 1 160 16.817;
#X obj 642 316 reson~ 1 169.514 16.817;
#X obj 642 342 reson~ 1 169.514 16.817;
#X obj 791 316 reson~ 1 179.594 16.817;
#X obj 791 342 reson~ 1 179.594 16.817;
#X obj 940 316 reson~ 1 190.273 16.817;
#X obj 940 342 reson~ 1 190.273 16.817;
#X obj 1089 316 reson~ 1 201.587 16.817;
#X obj 1089 342 reson~ 1 201.587 16.817;
#X obj 49 492 reson~ 1 213.574 16.817;
#X obj 49 518 reson~ 1 213.574 16.817;
#X obj 196 492 reson~ 1 226.274 16.817;
#X obj 196 518 reson~ 1 226.274 16.817;
#X obj 343 492 reson~ 1 239.729 16.817;
#X obj 343 518 reson~ 1 239.729 16.817;
#X obj 491 492 reson~ 1 253.984 16.817;
#X obj 491 518 reson~ 1 253.984 16.817;
#X obj 640 492 reson~ 1 269.087 16.817;
#X obj 640 518 reson~ 1 269.087 16.817;
#X obj 789 492 reson~ 1 285.088 16.817;
#X obj 789 518 reson~ 1 285.088 16.817;
#X obj 938 492 reson~ 1 302.04 16.817;
#X obj 938 518 reson~ 1 302.04 16.817;
#X obj 1087 492 reson~ 1 320 16.817;
#X obj 1087 518 reson~ 1 320 16.817;
#X obj 49 665 reson~ 1 339.028 16.817;
#X obj 49 691 reson~ 1 339.028 16.817;
#X obj 50 193 *~;
#X obj 121 237 line~;
#X obj 197 192 *~;
#X obj 256 235 line~;
#X obj 343 193 *~;
#X obj 402 237 line~;
#X obj 492 193 *~;
#X obj 551 236 line~;
#X obj 641 192 *~;
#X obj 700 236 line~;
#X obj 790 192 *~;
#X obj 849 235 line~;
#X obj 939 191 *~;
#X obj 998 235 line~;
#X obj 1088 190 *~;
#X obj 1147 233 line~;
#X obj 50 259 throw~ resintesis;
#X obj 197 258 throw~ resintesis;
#X obj 343 260 throw~ resintesis;
#X obj 492 260 throw~ resintesis;
#X obj 641 259 throw~ resintesis;
#X obj 790 258 throw~ resintesis;
#X obj 939 258 throw~ resintesis;
#X obj 1088 257 throw~ resintesis;
#X obj 51 368 *~;
#X obj 122 412 line~;
#X obj 198 367 *~;
#X obj 257 410 line~;
#X obj 344 368 *~;
#X obj 403 412 line~;
#X obj 493 368 *~;
#X obj 552 411 line~;
#X obj 642 367 *~;
#X obj 701 411 line~;
#X obj 791 367 *~;
#X obj 850 410 line~;
#X obj 940 366 *~;
#X obj 999 410 line~;
#X obj 1089 365 *~;
#X obj 1148 408 line~;
#X obj 51 434 throw~ resintesis;
#X obj 198 433 throw~ resintesis;
#X obj 344 435 throw~ resintesis;
#X obj 493 435 throw~ resintesis;
#X obj 642 434 throw~ resintesis;
#X obj 791 433 throw~ resintesis;
#X obj 940 433 throw~ resintesis;
#X obj 1089 432 throw~ resintesis;
#X obj 49 544 *~;
#X obj 120 588 line~;
#X obj 196 543 *~;
#X obj 255 586 line~;
#X obj 342 544 *~;
#X obj 401 588 line~;
#X obj 491 544 *~;
#X obj 550 587 line~;
#X obj 640 543 *~;
#X obj 699 587 line~;
#X obj 789 543 *~;
#X obj 848 586 line~;
#X obj 938 542 *~;
#X obj 997 586 line~;
#X obj 1087 541 *~;
#X obj 49 610 throw~ resintesis;
#X obj 196 609 throw~ resintesis;
#X obj 342 611 throw~ resintesis;
#X obj 491 611 throw~ resintesis;
#X obj 640 610 throw~ resintesis;
#X obj 789 609 throw~ resintesis;
#X obj 938 609 throw~ resintesis;
#X obj 1087 608 throw~ resintesis;
#X obj 1158 585 line~;
#X obj 49 714 *~;
#X obj 49 781 throw~ resintesis;
#X obj 120 758 line~;
#X obj 127 194 r F26;
#X obj 256 192 r F27;
#X obj 402 194 r F28;
#X obj 551 193 r F29;
#X obj 700 193 r F30;
#X obj 849 192 r F31;
#X obj 998 192 r F32;
#X obj 1147 190 r F33;
#X obj 128 369 r F34;
#X obj 257 367 r F35;
#X obj 403 369 r F36;
#X obj 552 368 r F37;
#X obj 701 368 r F38;
#X obj 850 367 r F39;
#X obj 999 367 r F40;
#X obj 1148 365 r F41;
#X obj 126 545 r F42;
#X obj 255 543 r F43;
#X obj 401 545 r F44;
#X obj 550 544 r F45;
#X obj 699 543 r F46;
#X obj 848 543 r F47;
#X obj 997 543 r F48;
#X obj 1158 542 r F49;
#X obj 120 715 r F50;
#X obj 254 287 r Q;
#X obj 210 666 r Q;
#X obj 195 465 r Q;
#X msg 1146 211 \$1 25;
#X msg 997 214 \$1 25;
#X msg 849 214 \$1 25;
#X msg 700 216 \$1 25;
#X msg 551 215 \$1 25;
#X msg 401 217 \$1 25;
#X msg 255 214 \$1 25;
#X msg 122 215 \$1 25;
#X msg 1149 386 \$1 25;
#X msg 1000 389 \$1 25;
#X msg 852 389 \$1 25;
#X msg 703 391 \$1 25;
#X msg 554 390 \$1 25;
#X msg 404 392 \$1 25;
#X msg 258 389 \$1 25;
#X msg 125 390 \$1 25;
#X msg 1149 562 \$1 25;
#X msg 1000 565 \$1 25;
#X msg 852 565 \$1 25;
#X msg 703 567 \$1 25;
#X msg 554 566 \$1 25;
#X msg 404 568 \$1 25;
#X msg 258 565 \$1 25;
#X msg 125 566 \$1 25;
#X msg 123 737 \$1 25;
#X connect 0 0 2 0;
#X connect 0 0 4 0;
#X connect 0 0 6 0;
#X connect 0 0 8 0;
#X connect 0 0 10 0;
#X connect 0 0 12 0;
#X connect 0 0 14 0;
#X connect 0 0 16 0;
#X connect 0 0 18 0;
#X connect 0 0 20 0;
#X connect 0 0 22 0;
#X connect 0 0 24 0;
#X connect 0 0 26 0;
#X connect 0 0 28 0;
#X connect 0 0 30 0;
#X connect 0 0 32 0;
#X connect 0 0 34 0;
#X connect 0 0 36 0;
#X connect 0 0 38 0;
#X connect 0 0 40 0;
#X connect 0 0 42 0;
#X connect 0 0 44 0;
#X connect 0 0 46 0;
#X connect 0 0 48 0;
#X connect 0 0 50 0;
#X connect 1 0 2 3;
#X connect 1 0 3 3;
#X connect 1 0 4 3;
#X connect 1 0 5 3;
#X connect 1 0 6 3;
#X connect 1 0 7 3;
#X connect 1 0 8 3;
#X connect 1 0 9 3;
#X connect 1 0 10 3;
#X connect 1 0 11 3;
#X connect 1 0 12 3;
#X connect 1 0 13 3;
#X connect 1 0 14 3;
#X connect 1 0 15 3;
#X connect 1 0 16 3;
#X connect 1 0 17 3;
#X connect 2 0 3 0;
#X connect 3 0 52 0;
#X connect 4 0 5 0;
#X connect 5 0 54 0;
#X connect 6 0 7 0;
#X connect 7 0 56 0;
#X connect 8 0 9 0;
#X connect 9 0 58 0;
#X connect 10 0 11 0;
#X connect 11 0 60 0;
#X connect 12 0 13 0;
#X connect 13 0 62 0;
#X connect 14 0 15 0;
#X connect 15 0 64 0;
#X connect 16 0 17 0;
#X connect 17 0 66 0;
#X connect 18 0 19 0;
#X connect 19 0 76 0;
#X connect 20 0 21 0;
#X connect 21 0 78 0;
#X connect 22 0 23 0;
#X connect 23 0 80 0;
#X connect 24 0 25 0;
#X connect 25 0 82 0;
#X connect 26 0 27 0;
#X connect 27 0 84 0;
#X connect 28 0 29 0;
#X connect 29 0 86 0;
#X connect 30 0 31 0;
#X connect 31 0 88 0;
#X connect 32 0 33 0;
#X connect 33 0 90 0;
#X connect 34 0 35 0;
#X connect 35 0 100 0;
#X connect 36 0 37 0;
#X connect 37 0 102 0;
#X connect 38 0 39 0;
#X connect 39 0 104 0;
#X connect 40 0 41 0;
#X connect 41 0 106 0;
#X connect 42 0 43 0;
#X connect 43 0 108 0;
#X connect 44 0 45 0;
#X connect 45 0 110 0;
#X connect 46 0 47 0;
#X connect 47 0 112 0;
#X connect 48 0 49 0;
#X connect 49 0 114 0;
#X connect 50 0 51 0;
#X connect 51 0 124 0;
#X connect 52 0 68 0;
#X connect 53 0 52 1;
#X connect 54 0 69 0;
#X connect 55 0 54 1;
#X connect 56 0 70 0;
#X connect 57 0 56 1;
#X connect 58 0 71 0;
#X connect 59 0 58 1;
#X connect 60 0 72 0;
#X connect 61 0 60 1;
#X connect 62 0 73 0;
#X connect 63 0 62 1;
#X connect 64 0 74 0;
#X connect 65 0 64 1;
#X connect 66 0 75 0;
#X connect 67 0 66 1;
#X connect 76 0 92 0;
#X connect 77 0 76 1;
#X connect 78 0 93 0;
#X connect 79 0 78 1;
#X connect 80 0 94 0;
#X connect 81 0 80 1;
#X connect 82 0 95 0;
#X connect 83 0 82 1;
#X connect 84 0 96 0;
#X connect 85 0 84 1;
#X connect 86 0 97 0;
#X connect 87 0 86 1;
#X connect 88 0 98 0;
#X connect 89 0 88 1;
#X connect 90 0 99 0;
#X connect 91 0 90 1;
#X connect 100 0 115 0;
#X connect 101 0 100 1;
#X connect 102 0 116 0;
#X connect 103 0 102 1;
#X connect 104 0 117 0;
#X connect 105 0 104 1;
#X connect 106 0 118 0;
#X connect 107 0 106 1;
#X connect 108 0 119 0;
#X connect 109 0 108 1;
#X connect 110 0 120 0;
#X connect 111 0 110 1;
#X connect 112 0 121 0;
#X connect 113 0 112 1;
#X connect 114 0 122 0;
#X connect 123 0 114 1;
#X connect 124 0 125 0;
#X connect 126 0 124 1;
#X connect 127 0 162 0;
#X connect 128 0 161 0;
#X connect 129 0 160 0;
#X connect 130 0 159 0;
#X connect 131 0 158 0;
#X connect 132 0 157 0;
#X connect 133 0 156 0;
#X connect 134 0 155 0;
#X connect 135 0 170 0;
#X connect 136 0 169 0;
#X connect 137 0 168 0;
#X connect 138 0 167 0;
#X connect 139 0 166 0;
#X connect 140 0 165 0;
#X connect 141 0 164 0;
#X connect 142 0 163 0;
#X connect 143 0 178 0;
#X connect 144 0 177 0;
#X connect 145 0 176 0;
#X connect 146 0 175 0;
#X connect 147 0 174 0;
#X connect 148 0 173 0;
#X connect 149 0 172 0;
#X connect 150 0 171 0;
#X connect 151 0 179 0;
#X connect 152 0 18 3;
#X connect 152 0 19 3;
#X connect 152 0 20 3;
#X connect 152 0 21 3;
#X connect 152 0 22 3;
#X connect 152 0 23 3;
#X connect 152 0 24 3;
#X connect 152 0 25 3;
#X connect 152 0 26 3;
#X connect 152 0 27 3;
#X connect 152 0 28 3;
#X connect 152 0 29 3;
#X connect 152 0 30 3;
#X connect 152 0 31 3;
#X connect 152 0 32 3;
#X connect 152 0 33 3;
#X connect 153 0 50 3;
#X connect 153 0 51 3;
#X connect 154 0 34 3;
#X connect 154 0 35 3;
#X connect 154 0 36 3;
#X connect 154 0 37 3;
#X connect 154 0 38 3;
#X connect 154 0 39 3;
#X connect 154 0 40 3;
#X connect 154 0 41 3;
#X connect 154 0 42 3;
#X connect 154 0 43 3;
#X connect 154 0 44 3;
#X connect 154 0 45 3;
#X connect 154 0 46 3;
#X connect 154 0 47 3;
#X connect 154 0 48 3;
#X connect 154 0 49 3;
#X connect 155 0 67 0;
#X connect 156 0 65 0;
#X connect 157 0 63 0;
#X connect 158 0 61 0;
#X connect 159 0 59 0;
#X connect 160 0 57 0;
#X connect 161 0 55 0;
#X connect 162 0 53 0;
#X connect 163 0 91 0;
#X connect 164 0 89 0;
#X connect 165 0 87 0;
#X connect 166 0 85 0;
#X connect 167 0 83 0;
#X connect 168 0 81 0;
#X connect 169 0 79 0;
#X connect 170 0 77 0;
#X connect 171 0 123 0;
#X connect 172 0 113 0;
#X connect 173 0 111 0;
#X connect 174 0 109 0;
#X connect 175 0 107 0;
#X connect 176 0 105 0;
#X connect 177 0 103 0;
#X connect 178 0 101 0;
#X connect 179 0 126 0;
#X restore 112 61 pd resintesis2;
#N canvas 0 22 1281 773 resintesis3 0;
#X obj 18 98 reson~ 1 359.188 16.817;
#X obj 18 124 reson~ 1 359.188 16.817;
#X obj 165 98 reson~ 1 380.546 16.817;
#X obj 165 124 reson~ 1 380.546 16.817;
#X obj 312 98 reson~ 1 403.175 16.817;
#X obj 312 124 reson~ 1 403.175 16.817;
#X obj 460 98 reson~ 1 427.149 16.817;
#X obj 460 124 reson~ 1 427.149 16.817;
#X obj 609 98 reson~ 1 452.548 16.817;
#X obj 609 124 reson~ 1 452.548 16.817;
#X obj 758 98 reson~ 1 479.458 16.817;
#X obj 758 124 reson~ 1 479.458 16.817;
#X obj 907 98 reson~ 1 507.968 16.817;
#X obj 907 124 reson~ 1 507.968 16.817;
#X obj 1056 98 reson~ 1 538.174 16.817;
#X obj 1056 124 reson~ 1 538.174 16.817;
#X obj 17 277 reson~ 1 570.175 16.817;
#X obj 17 303 reson~ 1 570.175 16.817;
#X obj 164 277 reson~ 1 604.08 16.817;
#X obj 164 303 reson~ 1 604.08 16.817;
#X obj 311 277 reson~ 1 640 16.817;
#X obj 311 303 reson~ 1 640 16.817;
#X obj 459 277 reson~ 1 678.056 16.817;
#X obj 459 303 reson~ 1 678.056 16.817;
#X obj 608 277 reson~ 1 718.376 16.817;
#X obj 608 303 reson~ 1 718.376 16.817;
#X obj 757 277 reson~ 1 761.093 16.817;
#X obj 757 303 reson~ 1 761.093 16.817;
#X obj 906 277 reson~ 1 806.349 16.817;
#X obj 906 303 reson~ 1 806.349 16.817;
#X obj 1055 277 reson~ 1 854.298 16.817;
#X obj 1055 303 reson~ 1 854.298 16.817;
#X obj 18 451 reson~ 1 905.097 16.817;
#X obj 18 477 reson~ 1 905.097 16.817;
#X obj 165 451 reson~ 1 958.917 16.817;
#X obj 165 477 reson~ 1 958.917 16.817;
#X obj 312 451 reson~ 1 1015.94 16.817;
#X obj 312 477 reson~ 1 1015.94 16.817;
#X obj 460 451 reson~ 1 1076.35 16.817;
#X obj 460 477 reson~ 1 1076.35 16.817;
#X obj 609 451 reson~ 1 1140.35 16.817;
#X obj 609 477 reson~ 1 1140.35 16.817;
#X obj 758 451 reson~ 1 1208.16 16.817;
#X obj 758 477 reson~ 1 1208.16 16.817;
#X obj 907 451 reson~ 1 1280 16.817;
#X obj 907 477 reson~ 1 1280 16.817;
#X obj 1056 451 reson~ 1 1356.11 16.817;
#X obj 1056 477 reson~ 1 1356.11 16.817;
#X obj 18 619 reson~ 1 1436.75 16.817;
#X obj 18 645 reson~ 1 1436.75 16.817;
#X obj 19 17 inlet~;
#X obj 18 156 *~;
#X obj 89 200 line~;
#X obj 165 155 *~;
#X obj 224 198 line~;
#X obj 311 156 *~;
#X obj 370 200 line~;
#X obj 460 156 *~;
#X obj 519 199 line~;
#X obj 609 155 *~;
#X obj 668 199 line~;
#X obj 758 155 *~;
#X obj 817 198 line~;
#X obj 907 154 *~;
#X obj 966 198 line~;
#X obj 1056 153 *~;
#X obj 1115 196 line~;
#X obj 18 222 throw~ resintesis;
#X obj 165 221 throw~ resintesis;
#X obj 311 223 throw~ resintesis;
#X obj 460 223 throw~ resintesis;
#X obj 609 222 throw~ resintesis;
#X obj 758 221 throw~ resintesis;
#X obj 907 221 throw~ resintesis;
#X obj 1056 220 throw~ resintesis;
#X obj 17 331 *~;
#X obj 88 375 line~;
#X obj 164 330 *~;
#X obj 223 373 line~;
#X obj 310 331 *~;
#X obj 369 375 line~;
#X obj 459 331 *~;
#X obj 518 374 line~;
#X obj 608 330 *~;
#X obj 667 374 line~;
#X obj 757 330 *~;
#X obj 816 373 line~;
#X obj 906 329 *~;
#X obj 965 373 line~;
#X obj 1055 328 *~;
#X obj 1114 371 line~;
#X obj 17 397 throw~ resintesis;
#X obj 164 396 throw~ resintesis;
#X obj 310 398 throw~ resintesis;
#X obj 459 398 throw~ resintesis;
#X obj 608 397 throw~ resintesis;
#X obj 757 396 throw~ resintesis;
#X obj 906 396 throw~ resintesis;
#X obj 1055 395 throw~ resintesis;
#X obj 18 503 *~;
#X obj 89 547 line~;
#X obj 165 502 *~;
#X obj 224 545 line~;
#X obj 311 503 *~;
#X obj 370 547 line~;
#X obj 460 503 *~;
#X obj 519 546 line~;
#X obj 609 502 *~;
#X obj 668 546 line~;
#X obj 758 502 *~;
#X obj 817 545 line~;
#X obj 907 501 *~;
#X obj 966 545 line~;
#X obj 1056 500 *~;
#X obj 1115 543 line~;
#X obj 18 569 throw~ resintesis;
#X obj 165 568 throw~ resintesis;
#X obj 311 570 throw~ resintesis;
#X obj 460 570 throw~ resintesis;
#X obj 609 569 throw~ resintesis;
#X obj 758 568 throw~ resintesis;
#X obj 907 568 throw~ resintesis;
#X obj 1056 567 throw~ resintesis;
#X obj 18 672 *~;
#X obj 77 715 line~;
#X obj 18 739 throw~ resintesis;
#X obj 95 157 r F51;
#X obj 224 155 r F52;
#X obj 370 157 r F53;
#X obj 519 156 r F54;
#X obj 668 156 r F55;
#X obj 817 155 r F56;
#X obj 966 155 r F57;
#X obj 1115 153 r F58;
#X obj 94 332 r F59;
#X obj 223 330 r F60;
#X obj 369 332 r F61;
#X obj 518 331 r F62;
#X obj 667 331 r F63;
#X obj 816 330 r F64;
#X obj 965 330 r F65;
#X obj 1114 328 r F66;
#X obj 95 504 r F67;
#X obj 224 502 r F68;
#X obj 370 504 r F69;
#X obj 519 503 r F70;
#X obj 668 503 r F71;
#X obj 817 502 r F72;
#X obj 966 502 r F73;
#X obj 1115 500 r F74;
#X obj 77 672 r F75;
#X obj 311 0 r Q;
#X obj 205 242 r Q;
#X obj 198 421 r Q;
#X obj 137 671 r Q;
#X msg 1115 174 \$1 25;
#X msg 966 177 \$1 25;
#X msg 818 177 \$1 25;
#X msg 669 179 \$1 25;
#X msg 520 178 \$1 25;
#X msg 370 180 \$1 25;
#X msg 224 177 \$1 25;
#X msg 91 178 \$1 25;
#X msg 1114 349 \$1 25;
#X msg 965 352 \$1 25;
#X msg 817 352 \$1 25;
#X msg 668 354 \$1 25;
#X msg 519 353 \$1 25;
#X msg 369 355 \$1 25;
#X msg 223 352 \$1 25;
#X msg 90 353 \$1 25;
#X msg 1113 521 \$1 25;
#X msg 964 524 \$1 25;
#X msg 816 524 \$1 25;
#X msg 667 526 \$1 25;
#X msg 518 525 \$1 25;
#X msg 368 527 \$1 25;
#X msg 222 524 \$1 25;
#X msg 89 525 \$1 25;
#X msg 79 693 \$1 25;
#X connect 0 0 1 0;
#X connect 1 0 51 0;
#X connect 2 0 3 0;
#X connect 3 0 53 0;
#X connect 4 0 5 0;
#X connect 5 0 55 0;
#X connect 6 0 7 0;
#X connect 7 0 57 0;
#X connect 8 0 9 0;
#X connect 9 0 59 0;
#X connect 10 0 11 0;
#X connect 11 0 61 0;
#X connect 12 0 13 0;
#X connect 13 0 63 0;
#X connect 14 0 15 0;
#X connect 15 0 65 0;
#X connect 16 0 17 0;
#X connect 17 0 75 0;
#X connect 18 0 19 0;
#X connect 19 0 77 0;
#X connect 20 0 21 0;
#X connect 21 0 79 0;
#X connect 22 0 23 0;
#X connect 23 0 81 0;
#X connect 24 0 25 0;
#X connect 25 0 83 0;
#X connect 26 0 27 0;
#X connect 27 0 85 0;
#X connect 28 0 29 0;
#X connect 29 0 87 0;
#X connect 30 0 31 0;
#X connect 31 0 89 0;
#X connect 32 0 33 0;
#X connect 33 0 99 0;
#X connect 34 0 35 0;
#X connect 35 0 101 0;
#X connect 36 0 37 0;
#X connect 37 0 103 0;
#X connect 38 0 39 0;
#X connect 39 0 105 0;
#X connect 40 0 41 0;
#X connect 41 0 107 0;
#X connect 42 0 43 0;
#X connect 43 0 109 0;
#X connect 44 0 45 0;
#X connect 45 0 111 0;
#X connect 46 0 47 0;
#X connect 47 0 113 0;
#X connect 48 0 49 0;
#X connect 49 0 123 0;
#X connect 50 0 0 0;
#X connect 50 0 2 0;
#X connect 50 0 4 0;
#X connect 50 0 6 0;
#X connect 50 0 8 0;
#X connect 50 0 10 0;
#X connect 50 0 12 0;
#X connect 50 0 14 0;
#X connect 50 0 16 0;
#X connect 50 0 18 0;
#X connect 50 0 20 0;
#X connect 50 0 22 0;
#X connect 50 0 24 0;
#X connect 50 0 26 0;
#X connect 50 0 28 0;
#X connect 50 0 30 0;
#X connect 50 0 32 0;
#X connect 50 0 34 0;
#X connect 50 0 36 0;
#X connect 50 0 38 0;
#X connect 50 0 40 0;
#X connect 50 0 42 0;
#X connect 50 0 44 0;
#X connect 50 0 46 0;
#X connect 50 0 48 0;
#X connect 51 0 67 0;
#X connect 52 0 51 1;
#X connect 53 0 68 0;
#X connect 54 0 53 1;
#X connect 55 0 69 0;
#X connect 56 0 55 1;
#X connect 57 0 70 0;
#X connect 58 0 57 1;
#X connect 59 0 71 0;
#X connect 60 0 59 1;
#X connect 61 0 72 0;
#X connect 62 0 61 1;
#X connect 63 0 73 0;
#X connect 64 0 63 1;
#X connect 65 0 74 0;
#X connect 66 0 65 1;
#X connect 75 0 91 0;
#X connect 76 0 75 1;
#X connect 77 0 92 0;
#X connect 78 0 77 1;
#X connect 79 0 93 0;
#X connect 80 0 79 1;
#X connect 81 0 94 0;
#X connect 82 0 81 1;
#X connect 83 0 95 0;
#X connect 84 0 83 1;
#X connect 85 0 96 0;
#X connect 86 0 85 1;
#X connect 87 0 97 0;
#X connect 88 0 87 1;
#X connect 89 0 98 0;
#X connect 90 0 89 1;
#X connect 99 0 115 0;
#X connect 100 0 99 1;
#X connect 101 0 116 0;
#X connect 102 0 101 1;
#X connect 103 0 117 0;
#X connect 104 0 103 1;
#X connect 105 0 118 0;
#X connect 106 0 105 1;
#X connect 107 0 119 0;
#X connect 108 0 107 1;
#X connect 109 0 120 0;
#X connect 110 0 109 1;
#X connect 111 0 121 0;
#X connect 112 0 111 1;
#X connect 113 0 122 0;
#X connect 114 0 113 1;
#X connect 123 0 125 0;
#X connect 124 0 123 1;
#X connect 126 0 162 0;
#X connect 127 0 161 0;
#X connect 128 0 160 0;
#X connect 129 0 159 0;
#X connect 130 0 158 0;
#X connect 131 0 157 0;
#X connect 132 0 156 0;
#X connect 133 0 155 0;
#X connect 134 0 170 0;
#X connect 135 0 169 0;
#X connect 136 0 168 0;
#X connect 137 0 167 0;
#X connect 138 0 166 0;
#X connect 139 0 165 0;
#X connect 140 0 164 0;
#X connect 141 0 163 0;
#X connect 142 0 178 0;
#X connect 143 0 177 0;
#X connect 144 0 176 0;
#X connect 145 0 175 0;
#X connect 146 0 174 0;
#X connect 147 0 173 0;
#X connect 148 0 172 0;
#X connect 149 0 171 0;
#X connect 150 0 179 0;
#X connect 151 0 0 3;
#X connect 151 0 1 3;
#X connect 151 0 2 3;
#X connect 151 0 3 3;
#X connect 151 0 4 3;
#X connect 151 0 5 3;
#X connect 151 0 6 3;
#X connect 151 0 7 3;
#X connect 151 0 8 3;
#X connect 151 0 9 3;
#X connect 151 0 10 3;
#X connect 151 0 11 3;
#X connect 151 0 12 3;
#X connect 151 0 13 3;
#X connect 151 0 14 3;
#X connect 151 0 15 3;
#X connect 152 0 16 3;
#X connect 152 0 17 3;
#X connect 152 0 18 3;
#X connect 152 0 19 3;
#X connect 152 0 20 3;
#X connect 152 0 21 3;
#X connect 152 0 22 3;
#X connect 152 0 23 3;
#X connect 152 0 24 3;
#X connect 152 0 25 3;
#X connect 152 0 26 3;
#X connect 152 0 27 3;
#X connect 152 0 28 3;
#X connect 152 0 29 3;
#X connect 152 0 30 3;
#X connect 152 0 31 3;
#X connect 153 0 32 3;
#X connect 153 0 33 3;
#X connect 153 0 34 3;
#X connect 153 0 35 3;
#X connect 153 0 36 3;
#X connect 153 0 37 3;
#X connect 153 0 40 0;
#X connect 153 0 39 3;
#X connect 153 0 40 3;
#X connect 153 0 41 3;
#X connect 153 0 42 3;
#X connect 153 0 43 3;
#X connect 153 0 44 3;
#X connect 153 0 45 3;
#X connect 153 0 46 3;
#X connect 153 0 47 3;
#X connect 154 0 48 3;
#X connect 154 0 49 3;
#X connect 155 0 66 0;
#X connect 156 0 64 0;
#X connect 157 0 62 0;
#X connect 158 0 60 0;
#X connect 159 0 58 0;
#X connect 160 0 56 0;
#X connect 161 0 54 0;
#X connect 162 0 52 0;
#X connect 163 0 90 0;
#X connect 164 0 88 0;
#X connect 165 0 86 0;
#X connect 166 0 84 0;
#X connect 167 0 82 0;
#X connect 168 0 80 0;
#X connect 169 0 78 0;
#X connect 170 0 76 0;
#X connect 171 0 114 0;
#X connect 172 0 112 0;
#X connect 173 0 110 0;
#X connect 174 0 108 0;
#X connect 175 0 106 0;
#X connect 176 0 104 0;
#X connect 177 0 102 0;
#X connect 178 0 100 0;
#X connect 179 0 124 0;
#X restore 206 61 pd resintesis3;
#N canvas 0 22 1399 821 resintesis4 0;
#X obj 29 124 reson~ 1 1522.19 16.817;
#X obj 29 150 reson~ 1 1522.19 16.817;
#X obj 176 124 reson~ 1 1612.7 16.817;
#X obj 176 150 reson~ 1 1612.7 16.817;
#X obj 323 124 reson~ 1 1708.59 16.817;
#X obj 323 150 reson~ 1 1708.59 16.817;
#X obj 471 124 reson~ 1 1810.19 16.817;
#X obj 471 150 reson~ 1 1810.19 16.817;
#X obj 620 124 reson~ 1 1917.83 16.817;
#X obj 620 150 reson~ 1 1917.83 16.817;
#X obj 769 124 reson~ 1 2031.87 16.817;
#X obj 769 150 reson~ 1 2031.87 16.817;
#X obj 918 124 reson~ 1 2152.7 16.817;
#X obj 918 150 reson~ 1 2152.7 16.817;
#X obj 1067 124 reson~ 1 2280.7 16.817;
#X obj 1067 150 reson~ 1 2280.7 16.817;
#X obj 29 293 reson~ 1 2416.32 16.817;
#X obj 29 319 reson~ 1 2416.32 16.817;
#X obj 176 293 reson~ 1 2560 16.817;
#X obj 176 319 reson~ 1 2560 16.817;
#X obj 323 293 reson~ 1 2712.23 16.817;
#X obj 323 319 reson~ 1 2712.23 16.817;
#X obj 471 293 reson~ 1 2873.5 16.817;
#X obj 471 319 reson~ 1 2873.5 16.817;
#X obj 620 293 reson~ 1 3044.37 16.817;
#X obj 620 319 reson~ 1 3044.37 16.817;
#X obj 769 293 reson~ 1 3225.4 16.817;
#X obj 769 319 reson~ 1 3225.4 16.817;
#X obj 918 293 reson~ 1 3417.19 16.817;
#X obj 918 319 reson~ 1 3417.19 16.817;
#X obj 1067 293 reson~ 1 3620.39 16.817;
#X obj 1067 319 reson~ 1 3620.39 16.817;
#X obj 30 462 reson~ 1 3835.67 16.817;
#X obj 30 488 reson~ 1 3835.67 16.817;
#X obj 177 462 reson~ 1 4063.75 16.817;
#X obj 177 488 reson~ 1 4063.75 16.817;
#X obj 324 462 reson~ 1 4305.39 16.817;
#X obj 324 488 reson~ 1 4305.39 16.817;
#X obj 472 462 reson~ 1 4561.4 16.817;
#X obj 472 488 reson~ 1 4561.4 16.817;
#X obj 621 462 reson~ 1 4832.64 16.817;
#X obj 621 488 reson~ 1 4832.64 16.817;
#X obj 770 462 reson~ 1 5120 16.817;
#X obj 770 488 reson~ 1 5120 16.817;
#X obj 919 462 reson~ 1 5424.45 16.817;
#X obj 919 488 reson~ 1 5424.45 16.817;
#X obj 1068 462 reson~ 1 5747.01 16.817;
#X obj 1068 488 reson~ 1 5747.01 16.817;
#X obj 29 634 reson~ 1 6088.74 16.817;
#X obj 29 660 reson~ 1 6088.74 16.817;
#X obj 29 27 inlet~;
#X obj 30 173 *~;
#X obj 101 217 line~;
#X obj 177 172 *~;
#X obj 236 215 line~;
#X obj 323 173 *~;
#X obj 382 217 line~;
#X obj 472 173 *~;
#X obj 531 216 line~;
#X obj 621 172 *~;
#X obj 680 216 line~;
#X obj 770 172 *~;
#X obj 829 215 line~;
#X obj 919 171 *~;
#X obj 978 215 line~;
#X obj 1068 170 *~;
#X obj 1127 213 line~;
#X obj 30 239 throw~ resintesis;
#X obj 177 238 throw~ resintesis;
#X obj 323 240 throw~ resintesis;
#X obj 472 240 throw~ resintesis;
#X obj 621 239 throw~ resintesis;
#X obj 770 238 throw~ resintesis;
#X obj 919 238 throw~ resintesis;
#X obj 1068 237 throw~ resintesis;
#X obj 29 343 *~;
#X obj 100 387 line~;
#X obj 176 342 *~;
#X obj 235 385 line~;
#X obj 322 343 *~;
#X obj 381 387 line~;
#X obj 471 343 *~;
#X obj 530 386 line~;
#X obj 620 342 *~;
#X obj 679 386 line~;
#X obj 769 342 *~;
#X obj 828 385 line~;
#X obj 918 341 *~;
#X obj 977 385 line~;
#X obj 1067 340 *~;
#X obj 1126 383 line~;
#X obj 29 409 throw~ resintesis;
#X obj 176 408 throw~ resintesis;
#X obj 322 410 throw~ resintesis;
#X obj 471 410 throw~ resintesis;
#X obj 620 409 throw~ resintesis;
#X obj 769 408 throw~ resintesis;
#X obj 918 408 throw~ resintesis;
#X obj 1067 407 throw~ resintesis;
#X obj 30 513 *~;
#X obj 101 557 line~;
#X obj 177 512 *~;
#X obj 236 555 line~;
#X obj 323 513 *~;
#X obj 382 557 line~;
#X obj 472 513 *~;
#X obj 531 556 line~;
#X obj 621 512 *~;
#X obj 680 556 line~;
#X obj 770 512 *~;
#X obj 829 555 line~;
#X obj 919 511 *~;
#X obj 978 555 line~;
#X obj 1068 510 *~;
#X obj 1127 553 line~;
#X obj 30 579 throw~ resintesis;
#X obj 177 578 throw~ resintesis;
#X obj 323 580 throw~ resintesis;
#X obj 472 580 throw~ resintesis;
#X obj 621 579 throw~ resintesis;
#X obj 770 578 throw~ resintesis;
#X obj 919 578 throw~ resintesis;
#X obj 1068 577 throw~ resintesis;
#X obj 29 686 *~;
#X obj 88 729 line~;
#X obj 29 753 throw~ resintesis;
#X obj 107 174 r F76;
#X obj 236 172 r F77;
#X obj 382 174 r F78;
#X obj 531 173 r F79;
#X obj 680 173 r F80;
#X obj 829 172 r F81;
#X obj 978 172 r F82;
#X obj 1127 170 r F83;
#X obj 106 344 r F84;
#X obj 235 342 r F85;
#X obj 381 344 r F86;
#X obj 530 343 r F87;
#X obj 679 343 r F88;
#X obj 828 342 r F89;
#X obj 977 342 r F90;
#X obj 1126 340 r F91;
#X obj 107 514 r F92;
#X obj 236 512 r F93;
#X obj 382 514 r F94;
#X obj 531 513 r F95;
#X obj 680 513 r F96;
#X obj 829 512 r F97;
#X obj 978 512 r F98;
#X obj 1127 510 r F99;
#X obj 88 686 r F100;
#X obj 527 37 r Q;
#X obj 145 270 r Q;
#X obj 148 430 r Q;
#X msg 1126 190 \$1 25;
#X msg 977 193 \$1 25;
#X msg 829 193 \$1 25;
#X msg 680 195 \$1 25;
#X msg 531 194 \$1 25;
#X msg 381 196 \$1 25;
#X msg 235 193 \$1 25;
#X msg 102 194 \$1 25;
#X msg 1123 361 \$1 25;
#X msg 974 364 \$1 25;
#X msg 826 364 \$1 25;
#X msg 677 366 \$1 25;
#X msg 528 365 \$1 25;
#X msg 378 367 \$1 25;
#X msg 232 364 \$1 25;
#X msg 99 365 \$1 25;
#X msg 1124 532 \$1 25;
#X msg 975 535 \$1 25;
#X msg 827 535 \$1 25;
#X msg 678 537 \$1 25;
#X msg 529 536 \$1 25;
#X msg 385 537 \$1 25;
#X msg 233 535 \$1 25;
#X msg 100 536 \$1 25;
#X msg 98 708 \$1 25;
#X connect 0 0 1 0;
#X connect 1 0 51 0;
#X connect 2 0 3 0;
#X connect 3 0 53 0;
#X connect 4 0 5 0;
#X connect 5 0 55 0;
#X connect 6 0 7 0;
#X connect 7 0 57 0;
#X connect 8 0 9 0;
#X connect 9 0 59 0;
#X connect 10 0 11 0;
#X connect 11 0 61 0;
#X connect 12 0 13 0;
#X connect 13 0 63 0;
#X connect 14 0 15 0;
#X connect 15 0 65 0;
#X connect 16 0 17 0;
#X connect 17 0 75 0;
#X connect 18 0 19 0;
#X connect 19 0 77 0;
#X connect 20 0 21 0;
#X connect 21 0 79 0;
#X connect 22 0 23 0;
#X connect 23 0 81 0;
#X connect 24 0 25 0;
#X connect 25 0 83 0;
#X connect 26 0 27 0;
#X connect 27 0 85 0;
#X connect 28 0 29 0;
#X connect 29 0 87 0;
#X connect 30 0 31 0;
#X connect 31 0 89 0;
#X connect 32 0 33 0;
#X connect 33 0 99 0;
#X connect 34 0 35 0;
#X connect 35 0 101 0;
#X connect 36 0 37 0;
#X connect 37 0 103 0;
#X connect 38 0 39 0;
#X connect 39 0 105 0;
#X connect 40 0 41 0;
#X connect 41 0 107 0;
#X connect 42 0 43 0;
#X connect 43 0 109 0;
#X connect 44 0 45 0;
#X connect 45 0 111 0;
#X connect 46 0 47 0;
#X connect 47 0 113 0;
#X connect 48 0 49 0;
#X connect 49 0 123 0;
#X connect 50 0 0 0;
#X connect 50 0 2 0;
#X connect 50 0 4 0;
#X connect 50 0 6 0;
#X connect 50 0 8 0;
#X connect 50 0 10 0;
#X connect 50 0 12 0;
#X connect 50 0 14 0;
#X connect 50 0 16 0;
#X connect 50 0 18 0;
#X connect 50 0 20 0;
#X connect 50 0 22 0;
#X connect 50 0 24 0;
#X connect 50 0 26 0;
#X connect 50 0 28 0;
#X connect 50 0 30 0;
#X connect 50 0 32 0;
#X connect 50 0 34 0;
#X connect 50 0 36 0;
#X connect 50 0 38 0;
#X connect 50 0 40 0;
#X connect 50 0 42 0;
#X connect 50 0 44 0;
#X connect 50 0 46 0;
#X connect 50 0 48 0;
#X connect 51 0 67 0;
#X connect 52 0 51 1;
#X connect 53 0 68 0;
#X connect 54 0 53 1;
#X connect 55 0 69 0;
#X connect 56 0 55 1;
#X connect 57 0 70 0;
#X connect 58 0 57 1;
#X connect 59 0 71 0;
#X connect 60 0 59 1;
#X connect 61 0 72 0;
#X connect 62 0 61 1;
#X connect 63 0 73 0;
#X connect 64 0 63 1;
#X connect 65 0 74 0;
#X connect 66 0 65 1;
#X connect 75 0 91 0;
#X connect 76 0 75 1;
#X connect 77 0 92 0;
#X connect 78 0 77 1;
#X connect 79 0 93 0;
#X connect 80 0 79 1;
#X connect 81 0 94 0;
#X connect 82 0 81 1;
#X connect 83 0 95 0;
#X connect 84 0 83 1;
#X connect 85 0 96 0;
#X connect 86 0 85 1;
#X connect 87 0 97 0;
#X connect 88 0 87 1;
#X connect 89 0 98 0;
#X connect 90 0 89 1;
#X connect 99 0 115 0;
#X connect 100 0 99 1;
#X connect 101 0 116 0;
#X connect 102 0 101 1;
#X connect 103 0 117 0;
#X connect 104 0 103 1;
#X connect 105 0 118 0;
#X connect 106 0 105 1;
#X connect 107 0 119 0;
#X connect 108 0 107 1;
#X connect 109 0 120 0;
#X connect 110 0 109 1;
#X connect 111 0 121 0;
#X connect 112 0 111 1;
#X connect 113 0 122 0;
#X connect 114 0 113 1;
#X connect 123 0 125 0;
#X connect 124 0 123 1;
#X connect 126 0 161 0;
#X connect 127 0 160 0;
#X connect 128 0 159 0;
#X connect 129 0 158 0;
#X connect 130 0 157 0;
#X connect 131 0 156 0;
#X connect 132 0 155 0;
#X connect 133 0 154 0;
#X connect 134 0 169 0;
#X connect 135 0 168 0;
#X connect 136 0 167 0;
#X connect 137 0 166 0;
#X connect 138 0 165 0;
#X connect 139 0 164 0;
#X connect 140 0 163 0;
#X connect 141 0 162 0;
#X connect 142 0 177 0;
#X connect 143 0 176 0;
#X connect 144 0 175 0;
#X connect 145 0 174 0;
#X connect 146 0 173 0;
#X connect 147 0 172 0;
#X connect 148 0 171 0;
#X connect 149 0 170 0;
#X connect 150 0 178 0;
#X connect 151 0 0 3;
#X connect 151 0 1 3;
#X connect 151 0 2 3;
#X connect 151 0 3 3;
#X connect 151 0 4 3;
#X connect 151 0 5 3;
#X connect 151 0 6 3;
#X connect 151 0 7 3;
#X connect 151 0 8 3;
#X connect 151 0 9 3;
#X connect 151 0 10 3;
#X connect 151 0 11 3;
#X connect 151 0 12 3;
#X connect 151 0 13 3;
#X connect 151 0 14 3;
#X connect 151 0 15 3;
#X connect 152 0 16 3;
#X connect 152 0 17 3;
#X connect 152 0 18 3;
#X connect 152 0 19 3;
#X connect 152 0 20 3;
#X connect 152 0 21 3;
#X connect 152 0 22 3;
#X connect 152 0 23 3;
#X connect 152 0 24 3;
#X connect 152 0 25 3;
#X connect 152 0 26 3;
#X connect 152 0 27 3;
#X connect 152 0 28 3;
#X connect 152 0 29 3;
#X connect 152 0 30 3;
#X connect 152 0 31 3;
#X connect 153 0 32 3;
#X connect 153 0 33 3;
#X connect 153 0 48 3;
#X connect 153 0 49 3;
#X connect 153 0 34 3;
#X connect 153 0 35 3;
#X connect 153 0 36 3;
#X connect 153 0 37 3;
#X connect 153 0 38 3;
#X connect 153 0 39 3;
#X connect 153 0 40 3;
#X connect 153 0 41 3;
#X connect 153 0 42 3;
#X connect 153 0 43 3;
#X connect 153 0 44 3;
#X connect 153 0 45 3;
#X connect 153 0 46 3;
#X connect 153 0 47 3;
#X connect 154 0 66 0;
#X connect 155 0 64 0;
#X connect 156 0 62 0;
#X connect 157 0 60 0;
#X connect 158 0 58 0;
#X connect 159 0 56 0;
#X connect 160 0 54 0;
#X connect 161 0 52 0;
#X connect 162 0 90 0;
#X connect 163 0 88 0;
#X connect 164 0 86 0;
#X connect 165 0 84 0;
#X connect 166 0 82 0;
#X connect 167 0 80 0;
#X connect 168 0 78 0;
#X connect 169 0 76 0;
#X connect 170 0 114 0;
#X connect 171 0 112 0;
#X connect 172 0 110 0;
#X connect 173 0 108 0;
#X connect 174 0 106 0;
#X connect 175 0 104 0;
#X connect 176 0 102 0;
#X connect 177 0 100 0;
#X connect 178 0 124 0;
#X restore 299 61 pd resintesis4;
#N canvas 0 22 1371 690 resintesis5 0;
#X obj 39 37 inlet~;
#X obj 39 134 reson~ 1 6450.8 16.817;
#X obj 39 160 reson~ 1 6450.8 16.817;
#X obj 186 134 reson~ 1 6834.38 16.817;
#X obj 186 160 reson~ 1 6834.38 16.817;
#X obj 333 134 reson~ 1 7240.77 16.817;
#X obj 333 160 reson~ 1 7240.77 16.817;
#X obj 481 134 reson~ 1 7671.33 16.817;
#X obj 481 160 reson~ 1 7671.33 16.817;
#X obj 630 134 reson~ 1 8127.49 16.817;
#X obj 630 160 reson~ 1 8127.49 16.817;
#X obj 779 134 reson~ 1 8610.78 16.817;
#X obj 779 160 reson~ 1 8610.78 16.817;
#X obj 928 134 reson~ 1 9122.8 16.817;
#X obj 928 160 reson~ 1 9122.8 16.817;
#X obj 1077 134 reson~ 1 9665.27 16.817;
#X obj 1077 160 reson~ 1 9665.27 16.817;
#X obj 39 310 reson~ 1 10240 16.817;
#X obj 39 336 reson~ 1 10240 16.817;
#X obj 186 310 reson~ 1 10848.9 16.817;
#X obj 186 336 reson~ 1 10848.9 16.817;
#X obj 333 310 reson~ 1 11494 16.817;
#X obj 333 336 reson~ 1 11494 16.817;
#X obj 481 310 reson~ 1 12177.5 16.817;
#X obj 481 336 reson~ 1 12177.5 16.817;
#X obj 630 310 reson~ 1 12901.6 16.817;
#X obj 630 336 reson~ 1 12901.6 16.817;
#X obj 779 310 reson~ 1 13668.8 16.817;
#X obj 779 336 reson~ 1 13668.8 16.817;
#X obj 928 310 reson~ 1 14481.5 16.817;
#X obj 928 336 reson~ 1 14481.5 16.817;
#X obj 1077 310 reson~ 1 15342.7 16.817;
#X obj 1077 336 reson~ 1 15342.7 16.817;
#X obj 39 487 reson~ 1 16255 16.817;
#X obj 39 513 reson~ 1 16255 16.817;
#X obj 186 487 reson~ 1 17221.6 16.817;
#X obj 186 513 reson~ 1 17221.6 16.817;
#X obj 333 487 reson~ 1 18245.6 16.817;
#X obj 333 513 reson~ 1 18245.6 16.817;
#X obj 481 487 reson~ 1 19330.5 16.817;
#X obj 481 513 reson~ 1 19330.5 16.817;
#X obj 630 487 reson~ 1 20480 16.817;
#X obj 630 513 reson~ 1 20480 16.817;
#X obj 779 487 reson~ 1 21697.8 16.817;
#X obj 779 513 reson~ 1 21697.8 16.817;
#X obj 928 487 reson~ 1 22988 16.817;
#X obj 928 513 reson~ 1 22988 16.817;
#X obj 39 187 *~;
#X obj 110 231 line~;
#X obj 186 186 *~;
#X obj 245 229 line~;
#X obj 332 187 *~;
#X obj 391 231 line~;
#X obj 481 187 *~;
#X obj 540 230 line~;
#X obj 630 186 *~;
#X obj 689 230 line~;
#X obj 779 186 *~;
#X obj 838 229 line~;
#X obj 928 185 *~;
#X obj 987 229 line~;
#X obj 1077 184 *~;
#X obj 1136 227 line~;
#X obj 39 253 throw~ resintesis;
#X obj 186 252 throw~ resintesis;
#X obj 332 254 throw~ resintesis;
#X obj 481 254 throw~ resintesis;
#X obj 630 253 throw~ resintesis;
#X obj 779 252 throw~ resintesis;
#X obj 928 252 throw~ resintesis;
#X obj 1077 251 throw~ resintesis;
#X obj 39 363 *~;
#X obj 110 407 line~;
#X obj 186 362 *~;
#X obj 245 405 line~;
#X obj 332 363 *~;
#X obj 391 407 line~;
#X obj 481 363 *~;
#X obj 540 406 line~;
#X obj 630 362 *~;
#X obj 689 406 line~;
#X obj 779 362 *~;
#X obj 838 405 line~;
#X obj 928 361 *~;
#X obj 987 405 line~;
#X obj 1077 360 *~;
#X obj 1136 403 line~;
#X obj 39 429 throw~ resintesis;
#X obj 186 428 throw~ resintesis;
#X obj 332 430 throw~ resintesis;
#X obj 481 430 throw~ resintesis;
#X obj 630 429 throw~ resintesis;
#X obj 779 428 throw~ resintesis;
#X obj 928 428 throw~ resintesis;
#X obj 1077 427 throw~ resintesis;
#X obj 39 540 *~;
#X obj 110 584 line~;
#X obj 186 539 *~;
#X obj 245 582 line~;
#X obj 332 540 *~;
#X obj 391 584 line~;
#X obj 481 540 *~;
#X obj 540 583 line~;
#X obj 630 539 *~;
#X obj 689 583 line~;
#X obj 779 539 *~;
#X obj 838 582 line~;
#X obj 928 538 *~;
#X obj 987 582 line~;
#X obj 39 606 throw~ resintesis;
#X obj 186 605 throw~ resintesis;
#X obj 332 607 throw~ resintesis;
#X obj 481 607 throw~ resintesis;
#X obj 630 606 throw~ resintesis;
#X obj 779 605 throw~ resintesis;
#X obj 928 605 throw~ resintesis;
#X obj 116 187 r F101;
#X obj 245 186 r F102;
#X obj 391 188 r F103;
#X obj 540 187 r F104;
#X obj 689 187 r F105;
#X obj 838 186 r F106;
#X obj 987 186 r F107;
#X obj 1136 184 r F108;
#X obj 116 364 r F109;
#X obj 245 362 r F110;
#X obj 391 364 r F111;
#X obj 540 363 r F112;
#X obj 689 363 r F113;
#X obj 838 362 r F114;
#X obj 987 362 r F115;
#X obj 1136 360 r F116;
#X obj 116 541 r F117;
#X obj 245 539 r F118;
#X obj 391 541 r F119;
#X obj 540 540 r F120;
#X obj 689 540 r F121;
#X obj 838 539 r F122;
#X obj 987 539 r F123;
#X obj 286 29 r Q;
#X obj 173 274 r Q;
#X obj 160 452 r Q;
#X msg 1136 204 \$1 25;
#X msg 987 207 \$1 25;
#X msg 839 207 \$1 25;
#X msg 690 209 \$1 25;
#X msg 541 208 \$1 25;
#X msg 391 210 \$1 25;
#X msg 245 207 \$1 25;
#X msg 112 208 \$1 25;
#X msg 1133 381 \$1 25;
#X msg 984 384 \$1 25;
#X msg 836 384 \$1 25;
#X msg 687 386 \$1 25;
#X msg 538 385 \$1 25;
#X msg 388 387 \$1 25;
#X msg 242 384 \$1 25;
#X msg 109 385 \$1 25;
#X msg 987 560 \$1 25;
#X msg 839 560 \$1 25;
#X msg 690 562 \$1 25;
#X msg 541 561 \$1 25;
#X msg 391 563 \$1 25;
#X msg 245 560 \$1 25;
#X msg 112 561 \$1 25;
#X connect 0 0 1 0;
#X connect 0 0 3 0;
#X connect 0 0 5 0;
#X connect 0 0 7 0;
#X connect 0 0 9 0;
#X connect 0 0 11 0;
#X connect 0 0 13 0;
#X connect 0 0 15 0;
#X connect 0 0 17 0;
#X connect 0 0 19 0;
#X connect 0 0 21 0;
#X connect 0 0 23 0;
#X connect 0 0 25 0;
#X connect 0 0 27 0;
#X connect 0 0 29 0;
#X connect 0 0 31 0;
#X connect 0 0 33 0;
#X connect 0 0 35 0;
#X connect 0 0 37 0;
#X connect 0 0 39 0;
#X connect 0 0 41 0;
#X connect 0 0 43 0;
#X connect 0 0 45 0;
#X connect 1 0 2 0;
#X connect 3 0 4 0;
#X connect 5 0 6 0;
#X connect 7 0 8 0;
#X connect 9 0 10 0;
#X connect 11 0 12 0;
#X connect 13 0 14 0;
#X connect 15 0 16 0;
#X connect 17 0 18 0;
#X connect 19 0 20 0;
#X connect 21 0 22 0;
#X connect 23 0 24 0;
#X connect 25 0 26 0;
#X connect 27 0 28 0;
#X connect 29 0 30 0;
#X connect 31 0 32 0;
#X connect 33 0 34 0;
#X connect 35 0 36 0;
#X connect 37 0 38 0;
#X connect 39 0 40 0;
#X connect 41 0 42 0;
#X connect 43 0 44 0;
#X connect 45 0 46 0;
#X connect 47 0 63 0;
#X connect 48 0 47 1;
#X connect 49 0 64 0;
#X connect 50 0 49 1;
#X connect 51 0 65 0;
#X connect 52 0 51 1;
#X connect 53 0 66 0;
#X connect 54 0 53 1;
#X connect 55 0 67 0;
#X connect 56 0 55 1;
#X connect 57 0 68 0;
#X connect 58 0 57 1;
#X connect 59 0 69 0;
#X connect 60 0 59 1;
#X connect 61 0 70 0;
#X connect 62 0 61 1;
#X connect 71 0 87 0;
#X connect 72 0 71 1;
#X connect 73 0 88 0;
#X connect 74 0 73 1;
#X connect 75 0 89 0;
#X connect 76 0 75 1;
#X connect 77 0 90 0;
#X connect 78 0 77 1;
#X connect 79 0 91 0;
#X connect 80 0 79 1;
#X connect 81 0 92 0;
#X connect 82 0 81 1;
#X connect 83 0 93 0;
#X connect 84 0 83 1;
#X connect 85 0 94 0;
#X connect 86 0 85 1;
#X connect 95 0 109 0;
#X connect 96 0 95 1;
#X connect 97 0 110 0;
#X connect 98 0 97 1;
#X connect 99 0 111 0;
#X connect 100 0 99 1;
#X connect 101 0 112 0;
#X connect 102 0 101 1;
#X connect 103 0 113 0;
#X connect 104 0 103 1;
#X connect 105 0 114 0;
#X connect 106 0 105 1;
#X connect 107 0 115 0;
#X connect 108 0 107 1;
#X connect 116 0 149 0;
#X connect 117 0 148 0;
#X connect 118 0 147 0;
#X connect 119 0 146 0;
#X connect 120 0 145 0;
#X connect 121 0 144 0;
#X connect 122 0 143 0;
#X connect 123 0 142 0;
#X connect 124 0 157 0;
#X connect 125 0 156 0;
#X connect 126 0 155 0;
#X connect 127 0 154 0;
#X connect 128 0 153 0;
#X connect 129 0 152 0;
#X connect 130 0 151 0;
#X connect 131 0 150 0;
#X connect 132 0 164 0;
#X connect 133 0 163 0;
#X connect 134 0 162 0;
#X connect 135 0 161 0;
#X connect 136 0 160 0;
#X connect 137 0 159 0;
#X connect 138 0 158 0;
#X connect 139 0 1 3;
#X connect 139 0 2 3;
#X connect 139 0 3 3;
#X connect 139 0 4 3;
#X connect 139 0 5 3;
#X connect 139 0 6 3;
#X connect 139 0 7 3;
#X connect 139 0 8 3;
#X connect 139 0 9 3;
#X connect 139 0 10 3;
#X connect 139 0 11 3;
#X connect 139 0 12 3;
#X connect 139 0 13 3;
#X connect 139 0 14 3;
#X connect 139 0 15 3;
#X connect 139 0 16 3;
#X connect 140 0 17 3;
#X connect 140 0 18 3;
#X connect 140 0 19 3;
#X connect 140 0 20 3;
#X connect 140 0 21 3;
#X connect 140 0 22 3;
#X connect 140 0 23 3;
#X connect 140 0 24 3;
#X connect 140 0 25 3;
#X connect 140 0 26 3;
#X connect 140 0 27 3;
#X connect 140 0 28 3;
#X connect 140 0 29 3;
#X connect 140 0 30 3;
#X connect 140 0 31 3;
#X connect 140 0 32 3;
#X connect 141 0 33 3;
#X connect 141 0 34 3;
#X connect 141 0 35 3;
#X connect 141 0 36 3;
#X connect 141 0 37 3;
#X connect 141 0 38 3;
#X connect 141 0 39 3;
#X connect 141 0 40 3;
#X connect 141 0 41 3;
#X connect 141 0 42 3;
#X connect 141 0 43 3;
#X connect 141 0 44 3;
#X connect 141 0 45 3;
#X connect 141 0 46 3;
#X connect 142 0 62 0;
#X connect 143 0 60 0;
#X connect 144 0 58 0;
#X connect 145 0 56 0;
#X connect 146 0 54 0;
#X connect 147 0 52 0;
#X connect 148 0 50 0;
#X connect 149 0 48 0;
#X connect 150 0 86 0;
#X connect 151 0 84 0;
#X connect 152 0 82 0;
#X connect 153 0 80 0;
#X connect 154 0 78 0;
#X connect 155 0 76 0;
#X connect 156 0 74 0;
#X connect 157 0 72 0;
#X connect 158 0 108 0;
#X connect 159 0 106 0;
#X connect 160 0 104 0;
#X connect 161 0 102 0;
#X connect 162 0 100 0;
#X connect 163 0 98 0;
#X connect 164 0 96 0;
#X restore 392 61 pd resintesis5;
#X obj 18 88 catch~ resintesis;
#X obj 18 113 s~ audio_out;
#X text 127 117 Resíntesis a partir de un generador de ruido blanco.
;
#X obj 18 29 r~ carrier;
#X connect 5 0 6 0;
#X connect 8 0 0 0;
#X connect 8 0 1 0;
#X connect 8 0 2 0;
#X connect 8 0 3 0;
#X connect 8 0 4 0;
#X restore 210 262 pd resintesis;
#X obj 596 264 output~;
#X obj 516 273 r~ audio_out;
#X obj 596 130 knob 50 50 16.817 50 0 0 Q empty valor_de_Q 0 -8 128
12 -262144 -1 -1 0 1;
#X obj 121 318 spectrogram~;
#X obj 243 173 adc~ 1;
#X obj 121 136 vradio 15 1 0 4 empty empty empty 0 -8 0 10 -262144
-1 -1 0;
#X obj 457 170 adc~ 1;
#X obj 475 190 adc~ 2;
#X obj 494 210 noise~;
#X obj 513 230 pink~;
#X obj 438 147 sfplay~;
#X obj 210 196 mux~ . . . .;
#X obj 285 173 adc~ 2;
#X obj 420 250 mux~ . . . . . .;
#X obj 346 136 vradio 15 1 0 6 empty empty empty 0 -8 0 10 -262144
-1 -1 0;
#X obj 420 273 s~ carrier;
#X obj 516 295 *~ 1;
#X obj 124 293 hsl 128 15 1 10 0 0 empty empty empty -2 -8 0 10 -262144
-1 -1 0 1;
#X text 139 134 OFF;
#X text 138 169 Input 1;
#X text 138 184 Input 2;
#X text 139 153 Archivo -->;
#X text 119 114 SEÑAL FORMANTE;
#X text 344 114 SEÑAL PORTADORA;
#X text 364 139 OFF;
#X text 363 169 Input 1;
#X text 363 184 Input 2;
#X text 364 199 Ruido blanco;
#X text 364 213 Ruido rosa;
#X text 364 154 Archivo -->;
#X text 118 278 GANANCIA DE SALIDA;
#X connect 0 0 15 1;
#X connect 5 0 20 0;
#X connect 8 0 15 2;
#X connect 9 0 15 0;
#X connect 10 0 17 2;
#X connect 11 0 17 3;
#X connect 12 0 17 4;
#X connect 13 0 17 5;
#X connect 14 0 17 1;
#X connect 15 0 1 0;
#X connect 16 0 15 3;
#X connect 17 0 19 0;
#X connect 18 0 17 0;
#X connect 20 0 4 0;
#X connect 20 0 4 1;
#X connect 20 0 7 0;
#X connect 21 0 20 1;
#X coords 0 -1 1 1 585 480 2 100 100;
#X restore -628 -512 pd VOCODER;
#X coords 0 0 1 1 85 60 0;
