#N canvas 838 22 101 817 10;
#X declare -lib windowing;
#N canvas 116 22 1055 804 channelstrip 0;
#X obj -15 169 hip~;
#X obj 106 159 knob 32 32 0 240 0 0 empty empty HP 0 -8 0 12 -262144
-1 -1 258 1;
#X floatatom 249 194 10 0 0 0 - - -;
#X obj 249 114 loadbang;
#X msg 249 140 20;
#X obj 110 865 output~;
#X obj -15 194 lop~;
#X obj 147 159 knob 32 32 1000 22100 0 0 empty empty LP 0 -8 0 12 -262144
-1 -1 3100 1;
#X floatatom 387 194 10 0 0 0 - - -;
#X obj 387 116 loadbang;
#X msg 387 140 22100;
#X obj 103 260 mono-gate;
#X obj -15 428 JRcompressor~;
#X obj 103 445 JRcompressorUI;
#X obj -15 588 FFT_filter~;
#X obj -15 619 *~;
#N canvas 800 206 457 479 pan 0;
#X obj -6 179 *~;
#X obj 47 179 *~;
#X obj -6 276 outlet~;
#X obj 47 276 outlet~;
#X text -8 290 LEFT;
#X text 45 290 RIGHT;
#X obj 105 104 knob 50 50 0 90 0 0 empty empty L__PAN__R 0 -8 0 8 -262144
-1 -1 2450 1;
#X obj 135 210 sin;
#X obj 105 210 cos;
#X floatatom 105 243 4 0 90 0 - - -;
#X floatatom 135 243 4 0 90 0 - - -;
#X obj 105 178 * 0.0174533;
#X obj 105 277 vsl 15 100 0 1 0 0 empty empty empty 0 -9 0 10 -262144
-1 -1 7000 1;
#X obj 135 277 vsl 15 100 0 1 0 0 empty empty empty 0 -9 0 10 -262144
-1 -1 7000 1;
#X obj 105 44 loadbang;
#X msg 105 75 45;
#X text 134 75 Default al centro con loadbang;
#X obj -6 144 inlet~;
#X connect 0 0 2 0;
#X connect 1 0 3 0;
#X connect 6 0 11 0;
#X connect 7 0 10 0;
#X connect 8 0 9 0;
#X connect 9 0 12 0;
#X connect 9 0 0 1;
#X connect 10 0 13 0;
#X connect 10 0 1 1;
#X connect 11 0 7 0;
#X connect 11 0 8 0;
#X connect 14 0 15 0;
#X connect 15 0 6 0;
#X connect 17 0 1 0;
#X connect 17 0 0 0;
#X coords 0 -1 1 1 60 60 2 100 100;
#X restore 112 636 pd pan;
#X obj -15 249 demux~ 1 2;
#X obj 111 219 hradio 30 1 0 2 empty empty Gate 0 -8 0 12 -262144 -1
-1 0;
#X obj -15 380 demux~ 1 2;
#X obj 112 403 hradio 30 1 0 2 empty empty Compressor 0 -8 0 12 -262144
-1 -1 0;
#X obj 193 656 loadbang;
#X msg 193 682 1;
#X obj -191 696 clip~ 0 1;
#X obj -130 696 clip~ 0 1;
#X obj -15 133 mux~ 1 2 3 4;
#X obj 105 114 hradio 19 1 0 4 empty empty IN_1_2_3_4 0 -8 0 10 -262144
-1 -1 0;
#X obj -15 35 adc~ 1;
#X obj 8 56 adc~ 2;
#X obj 31 76 adc~ 3;
#X obj 54 97 adc~ 4;
#X text 114 246 OFF;
#X text 154 246 ON;
#X text 117 431 OFF;
#X text 149 431 ON;
#X obj 158 701 vsl 20 160 0 2 0 0 empty empty empty 0 -9 0 10 -262144
-1 -1 7950 1;
#X obj 104 135 hsl 79 8 0 127 0 0 empty empty empty -2 -8 0 10 -258113
-1 -1 0 1;
#X obj 104 196 hsl 79 8 0 127 0 0 empty empty empty -2 -8 0 10 -258113
-1 -1 0 1;
#X obj 104 381 hsl 79 8 0 127 0 0 empty empty empty -2 -8 0 10 -258113
-1 -1 0 1;
#X obj 104 576 hsl 79 8 0 127 0 0 empty empty empty -2 -8 0 10 -258113
-1 -1 0 1;
#X obj 103 619 hsl 79 8 0 127 0 0 empty empty empty -2 -8 0 10 -258113
-1 -1 0 1;
#X obj 108 701 vu 20 160 empty empty -1 -8 0 10 -66577 -1 1 0;
#X obj -15 655 env~;
#X obj -15 683 - 100;
#X obj -93 506 vsl 15 100 0 2 0 0 empty constant empty 0 -9 0 10 -262144
-1 -1 4950 1;
#X msg -93 612 const \$1;
#N canvas 634 404 450 300 init 0;
#X obj 13 26 loadbang;
#X msg 13 61 \; FFTfilter yticks 0 0.1 5 \; FFTfilter xticks 0 5 5
\; constant 1 \;;
#X connect 0 0 1 0;
#X restore -93 484 pd init;
#X obj -93 637 s FFTfilter;
#N canvas 0 22 450 300 (subpatch) 0;
#X array FFTfilter 515 float 3;
#A 0 1 1 1 1 1 1 1 1 1 1 1 1 1 1 1 1 1 1 1 1 1 1 1 1 1 1 1 1 1 1 1
1 1 1 1 1 1 1 1 1 1 1 1 1 1 1 1 1 1 1 1 1 1 1 1 1 1 1 1 1 1 1 1 1 1
1 1 1 1 1 1 1 1 1 1 1 1 1 1 1 1 1 1 1 1 1 1 1 1 1 1 1 1 1 1 1 1 1 1
1 1 1 1 1 1 1 1 1 1 1 1 1 1 1 1 1 1 1 1 1 1 1 1 1 1 1 1 1 1 1 1 1 1
1 1 1 1 1 1 1 1 1 1 1 1 1 1 1 1 1 1 1 1 1 1 1 1 1 1 1 1 1 1 1 1 1 1
1 1 1 1 1 1 1 1 1 1 1 1 1 1 1 1 1 1 1 1 1 1 1 1 1 1 1 1 1 1 1 1 1 1
1 1 1 1 1 1 1 1 1 1 1 1 1 1 1 1 1 1 1 1 1 1 1 1 1 1 1 1 1 1 1 1 1 1
1 1 1 1 1 1 1 1 1 1 1 1 1 1 1 1 1 1 1 1 1 1 1 1 1 1 1 1 1 1 1 1 1 1
1 1 1 1 1 1 1 1 1 1 1 1 1 1 1 1 1 1 1 1 1 1 1 1 1 1 1 1 1 1 1 1 1 1
1 1 1 1 1 1 1 1 1 1 1 1 1 1 1 1 1 1 1 1 1 1 1 1 1 1 1 1 1 1 1 1 1 1
1 1 1 1 1 1 1 1 1 1 1 1 1 1 1 1 1 1 1 1 1 1 1 1 1 1 1 1 1 1 1 1 1 1
1 1 1 1 1 1 1 1 1 1 1 1 1 1 1 1 1 1 1 1 1 1 1 1 1 1 1 1 1 1 1 1 1 1
1 1 1 1 1 1 1 1 1 1 1 1 1 1 1 1 1 1 1 1 1 1 1 1 1 1 1 1 1 1 1 1 1 1
1 1 1 1 1 1 1 1 1 1 1 1 1 1 1 1 1 1 1 1 1 1 1 1 1 1 1 1 1 1 1 1 1 1
1 1 1 1 1 1 1 1 1 1 1 1 1 1 1 1 1 1 1 1 1 1 1 1 1 1 1 1 1 1 1 1 1 1
1 1 1 1 1 1 1 1;
#X coords 0 2 512 0 80 30 1;
#X restore 103 587 graph;
#X obj -280 149 sfplay~;
#X text -281 131 Para probar;
#X text 190 699 Fader de ganancia \, predeterminado a 1;
#X text -195 717 Clipear todo por encima de 1;
#X text 193 595 Filtro FFT visto en clase;
#X text -192 429 Compresor hecho con tutorial;
#X text 188 256 Noise gate. Bajado del foro de pure data y retocado.
;
#X text -198 379 Selector on/off del compresor;
#X text -167 248 Selector on/off del gate;
#X text 247 97 Filtro pasa altos por defecto corta en 20Hz;
#X text 385 156 Filtro pasa bajos por defecto no corta;
#X text -136 132 Selector de entrada;
#X text 199 893 Joaquin Romera. CAM IV \, U.N.Q. \, Nov 2013;
#X connect 0 0 6 0;
#X connect 1 0 0 1;
#X connect 1 0 2 0;
#X connect 3 0 4 0;
#X connect 4 0 1 0;
#X connect 6 0 17 0;
#X connect 7 0 8 0;
#X connect 7 0 6 1;
#X connect 9 0 10 0;
#X connect 10 0 7 0;
#X connect 11 0 19 0;
#X connect 12 0 14 0;
#X connect 12 1 13 0;
#X connect 13 0 12 1;
#X connect 14 0 15 0;
#X connect 15 0 42 0;
#X connect 15 0 16 0;
#X connect 16 0 23 0;
#X connect 16 1 24 0;
#X connect 17 0 19 0;
#X connect 17 1 11 0;
#X connect 17 1 11 1;
#X connect 18 0 17 0;
#X connect 19 0 14 0;
#X connect 19 1 12 0;
#X connect 20 0 19 0;
#X connect 21 0 22 0;
#X connect 22 0 35 0;
#X connect 23 0 5 0;
#X connect 24 0 5 1;
#X connect 25 0 0 0;
#X connect 26 0 25 0;
#X connect 27 0 25 0;
#X connect 28 0 25 1;
#X connect 29 0 25 2;
#X connect 30 0 25 3;
#X connect 35 0 15 1;
#X connect 42 0 43 0;
#X connect 43 0 41 0;
#X connect 43 0 41 1;
#X connect 44 0 45 0;
#X connect 45 0 47 0;
#X connect 49 0 0 0;
#X coords 0 -1 1 1 85 810 2 100 100;
#X restore 5 -367 pd channelstrip;
#X coords 0 0 1 1 85 60 0;
