#N canvas 348 51 497 598 10;
#X obj 123 259 r \$0-attack;
#X obj 230 291 timer;
#X obj 315 224 r \$0-attack;
#X obj 325 253 r \$0-decay;
#X obj 300 281 +;
#X obj 300 252 f;
#X obj 229 217 t b b;
#X obj 231 384 >= 0;
#X obj 231 339 t f f;
#X obj 181 467 f;
#X obj 196 440 r \$0-release;
#X msg 181 500 0 \$1;
#X obj 298 426 f;
#X obj 298 451 pack f f f;
#X obj 355 423 r \$0-release;
#X obj 120 528 vline~;
#X obj 231 413 sel 0 1;
#X msg 298 480 \$1 \$2 \, 0 \$3 \$2;
#X obj 231 316 expr $f2-$f1;
#X obj 375 303 r \$0-decay;
#X obj 350 327 min;
#X obj 388 325 r \$0-release;
#X obj 350 348 min;
#X obj 24 129 r \$0-velocity;
#X obj 35 288 pack f f f f f;
#X msg 35 313 \$1 \$2 \, \$3 \$4 \$5;
#X obj 88 210 *;
#X obj 51 184 t f f;
#X obj 396 370 r \$0-sustain;
#X obj 380 349 r \$0-velocity;
#X obj 381 396 *;
#X obj 120 565 outlet~;
#X obj 229 134 r \$0-velocity;
#X obj 229 179 sel 1 0;
#X obj 12 13 inlet velocity;
#X obj 104 13 inlet A;
#X obj 153 13 inlet D;
#X obj 203 14 inlet S;
#X obj 252 14 inlet R;
#X obj 101 155 r \$0-attack;
#X obj 103 184 r \$0-sustain;
#X obj 94 235 r \$0-decay;
#X obj 87 61 s \$0-attack;
#X obj 160 61 s \$0-decay;
#X obj 227 60 s \$0-sustain;
#X obj 307 60 s \$0-release;
#X obj 4 87 s \$0-velocity;
#X obj 311 33 unpack \$1 \$2 \$3 \$4;
#X obj 312 12 loadbang;
#X obj 24 59 / 127;
#X obj 24 35 clip 0 127;
#X obj 229 158 > 0;
#X obj 24 153 sel 0;
#X text 30 107 attack decay sustain;
#X text 242 113 release;
#X connect 0 0 24 4;
#X connect 1 0 18 0;
#X connect 2 0 5 1;
#X connect 3 0 4 1;
#X connect 4 0 18 1;
#X connect 5 0 4 0;
#X connect 6 0 1 0;
#X connect 6 1 5 0;
#X connect 7 0 16 0;
#X connect 8 0 7 0;
#X connect 8 1 20 0;
#X connect 9 0 11 0;
#X connect 10 0 9 1;
#X connect 11 0 15 0;
#X connect 12 0 13 0;
#X connect 13 0 17 0;
#X connect 14 0 13 2;
#X connect 15 0 31 0;
#X connect 16 0 9 0;
#X connect 16 1 12 0;
#X connect 17 0 15 0;
#X connect 18 0 8 0;
#X connect 19 0 20 1;
#X connect 20 0 22 0;
#X connect 21 0 22 1;
#X connect 22 0 13 1;
#X connect 23 0 52 0;
#X connect 24 0 25 0;
#X connect 25 0 15 0;
#X connect 26 0 24 2;
#X connect 27 0 24 0;
#X connect 27 1 26 0;
#X connect 28 0 30 1;
#X connect 29 0 30 0;
#X connect 30 0 12 1;
#X connect 32 0 51 0;
#X connect 33 0 6 0;
#X connect 33 1 1 1;
#X connect 34 0 50 0;
#X connect 35 0 42 0;
#X connect 36 0 43 0;
#X connect 37 0 44 0;
#X connect 38 0 45 0;
#X connect 39 0 24 1;
#X connect 40 0 26 1;
#X connect 41 0 24 3;
#X connect 47 0 42 0;
#X connect 47 1 43 0;
#X connect 47 2 44 0;
#X connect 47 3 45 0;
#X connect 48 0 47 0;
#X connect 49 0 46 0;
#X connect 50 0 49 0;
#X connect 51 0 33 0;
#X connect 52 1 27 0;
