#N canvas 551 70 300 345 10;
#X declare -lib windowing;
#X obj 69 19 inlet~;
#X obj 84 65 hanning~;
#X obj 69 86 *~;
#X obj 70 151 *~;
#X obj 126 156 *~;
#X obj 70 293 outlet~;
#X obj 85 247 hanning~;
#X obj 70 268 *~;
#X obj 84 40 sig~ 1;
#X obj 85 226 sig~ 1;
#X obj 139 214 declare -lib windowing;
#X obj 69 107 rfft~;
#X obj 70 178 rifft~;
#X obj 141 134 clip~ 0 2;
#X obj 141 107 tabreceive~ FFTfilter;
#X obj 70 205 /~ 4096;
#X obj 140 182 block~ 1024 4;
#X connect 0 0 2 0;
#X connect 1 0 2 1;
#X connect 2 0 11 0;
#X connect 3 0 12 0;
#X connect 4 0 12 1;
#X connect 6 0 7 1;
#X connect 7 0 5 0;
#X connect 8 0 1 0;
#X connect 9 0 6 0;
#X connect 11 0 3 0;
#X connect 11 1 4 0;
#X connect 12 0 15 0;
#X connect 13 0 3 1;
#X connect 13 0 4 1;
#X connect 14 0 13 0;
#X connect 15 0 7 0;
