#N canvas 244 253 817 411 10;
#X obj 229 80 route threshold ratio response gain rmspeak lookahead
;
#X floatatom 102 104 5 -100 0 3 Thresh #0-rthreshUI #0-sthreshUI;
#X floatatom 103 135 5 0 100 3 Ratio #0-rratioUI #0-sratioUI;
#X floatatom 145 104 5 0 0 3 Resp #0-rrespUI #0-srespUI;
#X floatatom 103 197 5 0 500 3 Lookahead #0-rlookUI #0-slookUI;
#X obj 103 167 hradio 15 1 0 2 \$0-srmsUI \$0-rrmsUI RMS/Peak 0 24
0 10 -262144 -1 -1 0;
#X floatatom 146 135 5 0 0 3 Gain #0-rgainUI #0-sgainUI;
#X obj 229 223 s \$0-rthreshUI;
#X obj 100 293 outlet;
#X obj 100 246 r \$0-sthreshUI;
#X msg 100 268 threshold \$1;
#X obj 201 246 r \$0-sratioUI;
#X msg 201 268 ratio \$1;
#X obj 289 247 r \$0-srespUI;
#X msg 289 269 response \$1;
#X obj 375 248 r \$0-sgainUI;
#X msg 375 270 gain \$1;
#X obj 461 248 r \$0-slookUI;
#X msg 461 270 lookahead \$1;
#X obj 556 248 r \$0-srmsUI;
#X msg 556 270 rmspeak \$1;
#X obj 281 203 s \$0-rratioUI;
#X obj 334 183 s \$0-rrespUI;
#X obj 386 163 s \$0-rgainUI;
#X obj 439 143 s \$0-rrmsUI;
#X obj 492 123 s \$0-rlookUI;
#X obj 229 59 inlet;
#X msg 229 102 set \$1;
#X msg 280 102 set \$1;
#X msg 334 102 set \$1;
#X msg 386 103 set \$1;
#X msg 492 101 set \$1;
#X msg 439 103 set \$1;
#X obj 161 167 bng 15 250 50 0 \$0-sdump \$0-rdump Get 0 23 0 10 -262144
-1 -1;
#X obj 646 247 r \$0-sdump;
#X msg 646 269 dump;
#X obj 646 291 symbol;
#X connect 0 0 27 0;
#X connect 0 1 28 0;
#X connect 0 2 29 0;
#X connect 0 3 30 0;
#X connect 0 4 32 0;
#X connect 0 5 31 0;
#X connect 9 0 10 0;
#X connect 10 0 8 0;
#X connect 11 0 12 0;
#X connect 12 0 8 0;
#X connect 13 0 14 0;
#X connect 14 0 8 0;
#X connect 15 0 16 0;
#X connect 16 0 8 0;
#X connect 17 0 18 0;
#X connect 18 0 8 0;
#X connect 19 0 20 0;
#X connect 20 0 8 0;
#X connect 26 0 0 0;
#X connect 27 0 7 0;
#X connect 28 0 21 0;
#X connect 29 0 22 0;
#X connect 30 0 23 0;
#X connect 31 0 25 0;
#X connect 32 0 24 0;
#X connect 34 0 35 0;
#X connect 35 0 36 0;
#X connect 36 0 8 0;
#X coords 0 -1 1 1 80 130 2 100 100;
