#N canvas 233 35 918 659 10;
#X obj 35 208 outlet~;
#X obj 35 97 *~;
#X obj 35 182 *~;
#N canvas 0 22 450 300 delWrite 0;
#X obj 68 80 delwrite~ \$0-comp 500;
#X obj 68 39 inlet~;
#X obj 68 156 outlet~;
#X connect 1 0 0 0;
#X restore 35 -1 pd delWrite;
#X obj 434 427 dbtorms;
#X obj 486 398 /;
#X obj 486 367 swap 1;
#X obj 539 374 /;
#X obj 539 352 swap 1000;
#X obj 217 80 lop~;
#X obj 217 41 clip~ 0 1;
#X obj 434 449 s \$0-thresh;
#X obj 486 420 s \$0-ratio;
#X obj 80 165 line~;
#X obj 80 144 pack f 5;
#X obj 80 120 r \$0-gain;
#X obj 591 331 s \$0-gain;
#N canvas 0 22 224 322 rms 0;
#X obj 7 37 env~ 512;
#X obj 7 115 -~;
#X obj 7 163 *~;
#X obj 7 215 +~;
#X obj 7 255 /~;
#X obj 128 82 +~ 0;
#X obj 22 90 r \$0-thresh;
#X obj 22 188 r \$0-thresh;
#X obj 22 139 r \$0-ratio;
#X obj 7 14 inlet~;
#X obj 7 277 outlet~;
#X obj 123 17 inlet;
#X obj 123 39 switch~;
#X obj 7 65 dbtorms~;
#X connect 0 0 13 0;
#X connect 1 0 2 0;
#X connect 2 0 3 0;
#X connect 3 0 4 0;
#X connect 4 0 10 0;
#X connect 5 0 4 1;
#X connect 6 0 1 1;
#X connect 7 0 3 1;
#X connect 8 0 2 1;
#X connect 9 0 0 0;
#X connect 11 0 12 0;
#X connect 13 0 1 0;
#X connect 13 0 5 0;
#X restore 217 -11 pd rms;
#N canvas 0 22 319 292 peak 0;
#X obj 16 45 abs~;
#X obj 16 94 -~;
#X obj 16 142 *~;
#X obj 16 194 +~;
#X obj 16 234 /~;
#X obj 137 62 +~ 0;
#X obj 31 69 r \$0-thresh;
#X obj 31 167 r \$0-thresh;
#X obj 31 118 r \$0-ratio;
#X obj 16 20 inlet~;
#X obj 16 256 outlet~;
#X obj 242 96 inlet;
#X obj 242 118 switch~;
#X connect 0 0 1 0;
#X connect 0 0 5 0;
#X connect 1 0 2 0;
#X connect 2 0 3 0;
#X connect 3 0 4 0;
#X connect 4 0 10 0;
#X connect 5 0 4 1;
#X connect 6 0 1 1;
#X connect 7 0 3 1;
#X connect 8 0 2 1;
#X connect 9 0 0 0;
#X connect 11 0 12 0;
#X restore 265 -11 pd peak;
#X obj 250 -37 == 0;
#X obj 250 -60 t f f;
#X obj 35 -28 inlet~;
#X obj 250 -84 r \$0-rmspeak;
#X obj 696 278 s \$0-lookahead;
#X obj 121 10 r \$0-lookahead;
#X obj 434 257 route threshold ratio response gain rmspeak lookahead
;
#X obj 434 144 inlet control;
#X obj 495 165 loadbang;
#X obj 434 215 t a a;
#X obj 461 236 s \$0-dump;
#X obj 434 392 + 100;
#X obj 591 285 + 100;
#X obj 591 307 dbtorms;
#X obj 539 396 s \$0-response;
#X obj 844 545 outlet;
#X obj 844 480 r \$0-dump;
#N canvas 368 180 589 352 dump 0;
#X obj 16 14 inlet;
#X obj 17 325 outlet;
#X msg 79 271 threshold \$1;
#X msg 131 232 ratio \$1;
#X msg 186 194 response \$1;
#X msg 236 152 gain \$1;
#X msg 289 113 rmspeak \$1;
#X msg 341 71 lookahead \$1;
#X obj 79 31 route threshold ratio response gain rmspeak lookahead
;
#X obj 58 291 list;
#X obj 110 252 list;
#X obj 165 213 list;
#X obj 215 175 list;
#X obj 268 133 list;
#X obj 320 93 list;
#X obj 477 69 t b b b b b b;
#X obj 394 51 sel dump;
#X obj 320 308 list trim;
#X connect 0 0 1 0;
#X connect 0 0 8 0;
#X connect 2 0 9 1;
#X connect 3 0 10 1;
#X connect 4 0 11 1;
#X connect 5 0 12 1;
#X connect 6 0 13 1;
#X connect 7 0 14 1;
#X connect 8 0 2 0;
#X connect 8 1 3 0;
#X connect 8 2 4 0;
#X connect 8 3 5 0;
#X connect 8 4 6 0;
#X connect 8 5 7 0;
#X connect 8 6 16 0;
#X connect 9 0 17 0;
#X connect 10 0 17 0;
#X connect 11 0 17 0;
#X connect 12 0 17 0;
#X connect 13 0 17 0;
#X connect 14 0 17 0;
#X connect 15 0 9 0;
#X connect 15 1 10 0;
#X connect 15 2 11 0;
#X connect 15 3 12 0;
#X connect 15 4 13 0;
#X connect 15 5 14 0;
#X connect 16 0 15 0;
#X connect 17 0 1 0;
#X restore 844 502 pd dump;
#X msg 495 185 threshold -2 \, ratio 2 \, response 40 \, gain 0 \,
rmspeak 0 \, lookahead 0;
#N canvas 0 22 450 300 delRead 0;
#X obj 68 41 inlet~;
#X obj 133 155 outlet~;
#X obj 133 42 inlet lookAhead;
#X obj 133 116 delread~ \$0-comp 0;
#X connect 2 0 3 0;
#X connect 3 0 1 0;
#X restore 35 27 pd delRead;
#X text 79 -28 Input;
#X obj 256 63 r \$0-response;
#X obj 644 302 s \$0-rmspeak;
#X text 313 -10 subpatches para el tipo de detección del compresor
;
#X text 293 -59 switcher para el tipo de detección \, pico o rms;
#X text 344 64 attack y release están unificados y usan un LPF;
#X text 141 120 compensación de ganancia (make-up);
#X text 41 45 delays para el lookahead;
#X text 551 166 valores predeterminados;
#X text 522 236 envía controles a la interfaz;
#X text 786 277 en milisegundos;
#X text 722 302 selector del tipo de compresión;
#X text 652 332 makeup gain;
#X text 622 396 attack/release;
#X text 551 420 inversa del radio para no usar sucesivas divisiones
;
#X text 509 450 umbral;
#X text 702 544 envia controles al UI;
#X connect 1 0 2 0;
#X connect 2 0 0 0;
#X connect 3 0 38 0;
#X connect 4 0 11 0;
#X connect 5 0 12 0;
#X connect 6 0 5 0;
#X connect 6 1 5 1;
#X connect 7 0 33 0;
#X connect 8 0 7 0;
#X connect 8 1 7 1;
#X connect 9 0 1 1;
#X connect 10 0 9 0;
#X connect 13 0 2 1;
#X connect 14 0 13 0;
#X connect 15 0 14 0;
#X connect 17 0 10 0;
#X connect 18 0 10 0;
#X connect 19 0 17 1;
#X connect 20 0 19 0;
#X connect 20 1 18 1;
#X connect 21 0 3 0;
#X connect 21 0 17 0;
#X connect 21 0 18 0;
#X connect 22 0 20 0;
#X connect 24 0 38 1;
#X connect 25 0 30 0;
#X connect 25 1 6 0;
#X connect 25 2 8 0;
#X connect 25 3 31 0;
#X connect 25 4 41 0;
#X connect 25 5 23 0;
#X connect 26 0 28 0;
#X connect 27 0 37 0;
#X connect 28 0 25 0;
#X connect 28 1 29 0;
#X connect 30 0 4 0;
#X connect 31 0 32 0;
#X connect 32 0 16 0;
#X connect 35 0 36 0;
#X connect 36 0 34 0;
#X connect 37 0 28 0;
#X connect 38 0 1 0;
#X connect 40 0 9 1;
